<?xml version="1.0" encoding="utf-8" standalone="no"?>
<!DOCTYPE svg PUBLIC "-//W3C//DTD SVG 1.1//EN"
  "http://www.w3.org/Graphics/SVG/1.1/DTD/svg11.dtd">
<svg xmlns:xlink="http://www.w3.org/1999/xlink" width="720pt" height="324pt" viewBox="0 0 720 324" xmlns="http://www.w3.org/2000/svg" version="1.1">
 <metadata>
  <rdf:RDF xmlns:dc="http://purl.org/dc/elements/1.1/" xmlns:cc="http://creativecommons.org/ns#" xmlns:rdf="http://www.w3.org/1999/02/22-rdf-syntax-ns#">
   <cc:Work>
    <dc:type rdf:resource="http://purl.org/dc/dcmitype/StillImage"/>
    <dc:date>2026-05-11T14:54:06.714647</dc:date>
    <dc:format>image/svg+xml</dc:format>
    <dc:creator>
     <cc:Agent>
      <dc:title>Matplotlib v3.10.7, https://matplotlib.org/</dc:title>
     </cc:Agent>
    </dc:creator>
   </cc:Work>
  </rdf:RDF>
 </metadata>
 <defs>
  <style type="text/css">*{stroke-linejoin: round; stroke-linecap: butt}</style>
 </defs>
 <g id="figure_1">
  <g id="patch_1">
   <path d="M 0 324 
L 720 324 
L 720 0 
L 0 0 
z
" style="fill: #ffffff"/>
  </g>
  <g id="axes_1">
   <g id="patch_2">
    <path d="M 56.78 275.56 
L 699.052617 275.56 
L 699.052617 30.48 
L 56.78 30.48 
z
" style="fill: #ffffff"/>
   </g>
   <g id="matplotlib.axis_1">
    <g id="xtick_1">
     <g id="line2d_1">
      <path d="M 56.78 275.56 
L 56.78 30.48 
" clip-path="url(#p2c04de5f60)" style="fill: none; stroke-dasharray: 0.8,1.32; stroke-dashoffset: 0; stroke: #b0b0b0; stroke-opacity: 0.6; stroke-width: 0.8"/>
     </g>
     <g id="line2d_2">
      <defs>
       <path id="m4e92a38c48" d="M 0 0 
L 0 3.5 
" style="stroke: #000000; stroke-width: 0.8"/>
      </defs>
      <g>
       <use xlink:href="#m4e92a38c48" x="56.78" y="275.56" style="stroke: #000000; stroke-width: 0.8"/>
      </g>
     </g>
     <g id="text_1">
      <!-- $-2\pi$ -->
      <g transform="translate(44.3 291.678125) scale(0.12 -0.12)">
       <defs>
        <path id="DejaVuSans-2212" d="M 678 2272 
L 4684 2272 
L 4684 1741 
L 678 1741 
L 678 2272 
z
" transform="scale(0.015625)"/>
        <path id="DejaVuSans-32" d="M 1228 531 
L 3431 531 
L 3431 0 
L 469 0 
L 469 531 
Q 828 903 1448 1529 
Q 2069 2156 2228 2338 
Q 2531 2678 2651 2914 
Q 2772 3150 2772 3378 
Q 2772 3750 2511 3984 
Q 2250 4219 1831 4219 
Q 1534 4219 1204 4116 
Q 875 4013 500 3803 
L 500 4441 
Q 881 4594 1212 4672 
Q 1544 4750 1819 4750 
Q 2544 4750 2975 4387 
Q 3406 4025 3406 3419 
Q 3406 3131 3298 2873 
Q 3191 2616 2906 2266 
Q 2828 2175 2409 1742 
Q 1991 1309 1228 531 
z
" transform="scale(0.015625)"/>
        <path id="DejaVuSans-Oblique-3c0" d="M 584 3500 
L 3938 3500 
L 3825 2925 
L 3384 2925 
L 2966 775 
Q 2922 550 2981 450 
Q 3038 353 3209 353 
Q 3256 353 3325 363 
Q 3397 369 3419 372 
L 3338 -44 
Q 3222 -84 3103 -103 
Q 2981 -122 2866 -122 
Q 2491 -122 2388 81 
Q 2284 288 2391 838 
L 2797 2925 
L 1506 2925 
L 938 0 
L 350 0 
L 919 2925 
L 472 2925 
L 584 3500 
z
" transform="scale(0.015625)"/>
       </defs>
       <use xlink:href="#DejaVuSans-2212" transform="translate(0 0.78125)"/>
       <use xlink:href="#DejaVuSans-32" transform="translate(83.789062 0.78125)"/>
       <use xlink:href="#DejaVuSans-Oblique-3c0" transform="translate(147.412109 0.78125)"/>
      </g>
     </g>
    </g>
    <g id="xtick_2">
     <g id="line2d_3">
      <path d="M 217.348154 275.56 
L 217.348154 30.48 
" clip-path="url(#p2c04de5f60)" style="fill: none; stroke-dasharray: 0.8,1.32; stroke-dashoffset: 0; stroke: #b0b0b0; stroke-opacity: 0.6; stroke-width: 0.8"/>
     </g>
     <g id="line2d_4">
      <g>
       <use xlink:href="#m4e92a38c48" x="217.348154" y="275.56" style="stroke: #000000; stroke-width: 0.8"/>
      </g>
     </g>
     <g id="text_2">
      <!-- $-\pi$ -->
      <g transform="translate(208.708154 291.678125) scale(0.12 -0.12)">
       <use xlink:href="#DejaVuSans-2212" transform="translate(0 0.3125)"/>
       <use xlink:href="#DejaVuSans-Oblique-3c0" transform="translate(83.789062 0.3125)"/>
      </g>
     </g>
    </g>
    <g id="xtick_3">
     <g id="line2d_5">
      <path d="M 377.916309 275.56 
L 377.916309 30.48 
" clip-path="url(#p2c04de5f60)" style="fill: none; stroke-dasharray: 0.8,1.32; stroke-dashoffset: 0; stroke: #b0b0b0; stroke-opacity: 0.6; stroke-width: 0.8"/>
     </g>
     <g id="line2d_6">
      <g>
       <use xlink:href="#m4e92a38c48" x="377.916309" y="275.56" style="stroke: #000000; stroke-width: 0.8"/>
      </g>
     </g>
     <g id="text_3">
      <!-- 0 -->
      <g transform="translate(374.098809 291.678125) scale(0.12 -0.12)">
       <defs>
        <path id="DejaVuSerif-30" d="M 2034 219 
Q 2513 219 2750 744 
Q 2988 1269 2988 2328 
Q 2988 3391 2750 3916 
Q 2513 4441 2034 4441 
Q 1556 4441 1318 3916 
Q 1081 3391 1081 2328 
Q 1081 1269 1318 744 
Q 1556 219 2034 219 
z
M 2034 -91 
Q 1275 -91 848 546 
Q 422 1184 422 2328 
Q 422 3475 848 4112 
Q 1275 4750 2034 4750 
Q 2797 4750 3222 4112 
Q 3647 3475 3647 2328 
Q 3647 1184 3222 546 
Q 2797 -91 2034 -91 
z
" transform="scale(0.015625)"/>
       </defs>
       <use xlink:href="#DejaVuSerif-30"/>
      </g>
     </g>
    </g>
    <g id="xtick_4">
     <g id="line2d_7">
      <path d="M 538.484463 275.56 
L 538.484463 30.48 
" clip-path="url(#p2c04de5f60)" style="fill: none; stroke-dasharray: 0.8,1.32; stroke-dashoffset: 0; stroke: #b0b0b0; stroke-opacity: 0.6; stroke-width: 0.8"/>
     </g>
     <g id="line2d_8">
      <g>
       <use xlink:href="#m4e92a38c48" x="538.484463" y="275.56" style="stroke: #000000; stroke-width: 0.8"/>
      </g>
     </g>
     <g id="text_4">
      <!-- $\pi$ -->
      <g transform="translate(534.824463 291.678125) scale(0.12 -0.12)">
       <use xlink:href="#DejaVuSans-Oblique-3c0" transform="translate(0 0.3125)"/>
      </g>
     </g>
    </g>
    <g id="xtick_5">
     <g id="line2d_9">
      <path d="M 699.052617 275.56 
L 699.052617 30.48 
" clip-path="url(#p2c04de5f60)" style="fill: none; stroke-dasharray: 0.8,1.32; stroke-dashoffset: 0; stroke: #b0b0b0; stroke-opacity: 0.6; stroke-width: 0.8"/>
     </g>
     <g id="line2d_10">
      <g>
       <use xlink:href="#m4e92a38c48" x="699.052617" y="275.56" style="stroke: #000000; stroke-width: 0.8"/>
      </g>
     </g>
     <g id="text_5">
      <!-- $2\pi$ -->
      <g transform="translate(691.612617 291.678125) scale(0.12 -0.12)">
       <use xlink:href="#DejaVuSans-32" transform="translate(0 0.78125)"/>
       <use xlink:href="#DejaVuSans-Oblique-3c0" transform="translate(63.623047 0.78125)"/>
      </g>
     </g>
    </g>
    <g id="text_6">
     <!-- $\omega$ (rad/sample) -->
     <g transform="translate(332.316309 307.29375) scale(0.12 -0.12)">
      <defs>
       <path id="DejaVuSans-Oblique-3c9" d="M 1369 -91 
Q 72 -91 434 1766 
Q 575 2500 1256 3500 
L 1875 3500 
Q 1231 2500 1088 1750 
Q 819 397 1519 397 
Q 2166 397 2478 2078 
L 3009 2078 
Q 2669 388 3316 397 
Q 4013 403 4275 1750 
Q 4419 2500 4169 3500 
L 4788 3500 
Q 5075 2500 4934 1766 
Q 4578 -94 3278 -91 
Q 2428 -88 2503 844 
Q 2194 -91 1369 -91 
z
" transform="scale(0.015625)"/>
       <path id="DejaVuSerif-20" transform="scale(0.015625)"/>
       <path id="DejaVuSerif-28" d="M 2041 -997 
Q 1281 -656 893 83 
Q 506 822 506 1931 
Q 506 3044 893 3783 
Q 1281 4522 2041 4863 
L 2041 4556 
Q 1559 4225 1350 3623 
Q 1141 3022 1141 1931 
Q 1141 844 1350 242 
Q 1559 -359 2041 -691 
L 2041 -997 
z
" transform="scale(0.015625)"/>
       <path id="DejaVuSerif-72" d="M 3059 3328 
L 3059 2497 
L 2728 2497 
Q 2713 2744 2591 2866 
Q 2469 2988 2234 2988 
Q 1809 2988 1582 2694 
Q 1356 2400 1356 1850 
L 1356 331 
L 2022 331 
L 2022 0 
L 263 0 
L 263 331 
L 781 331 
L 781 2994 
L 231 2994 
L 231 3322 
L 1356 3322 
L 1356 2731 
Q 1525 3078 1790 3245 
Q 2056 3413 2438 3413 
Q 2578 3413 2733 3391 
Q 2888 3369 3059 3328 
z
" transform="scale(0.015625)"/>
       <path id="DejaVuSerif-61" d="M 2547 1044 
L 2547 1747 
L 1806 1747 
Q 1378 1747 1168 1562 
Q 959 1378 959 997 
Q 959 650 1171 447 
Q 1384 244 1747 244 
Q 2106 244 2326 466 
Q 2547 688 2547 1044 
z
M 3122 2075 
L 3122 331 
L 3634 331 
L 3634 0 
L 2547 0 
L 2547 359 
Q 2356 128 2106 18 
Q 1856 -91 1522 -91 
Q 969 -91 644 203 
Q 319 497 319 997 
Q 319 1513 691 1797 
Q 1063 2081 1741 2081 
L 2547 2081 
L 2547 2309 
Q 2547 2688 2317 2895 
Q 2088 3103 1672 3103 
Q 1328 3103 1125 2947 
Q 922 2791 872 2484 
L 575 2484 
L 575 3156 
Q 875 3284 1158 3348 
Q 1441 3413 1709 3413 
Q 2400 3413 2761 3070 
Q 3122 2728 3122 2075 
z
" transform="scale(0.015625)"/>
       <path id="DejaVuSerif-64" d="M 3359 331 
L 3909 331 
L 3909 0 
L 2784 0 
L 2784 519 
Q 2616 206 2355 57 
Q 2094 -91 1709 -91 
Q 1097 -91 708 395 
Q 319 881 319 1663 
Q 319 2444 706 2928 
Q 1094 3413 1709 3413 
Q 2094 3413 2355 3264 
Q 2616 3116 2784 2803 
L 2784 4531 
L 2241 4531 
L 2241 4863 
L 3359 4863 
L 3359 331 
z
M 2784 1497 
L 2784 1825 
Q 2784 2422 2554 2737 
Q 2325 3053 1888 3053 
Q 1444 3053 1217 2703 
Q 991 2353 991 1663 
Q 991 975 1217 622 
Q 1444 269 1888 269 
Q 2325 269 2554 583 
Q 2784 897 2784 1497 
z
" transform="scale(0.015625)"/>
       <path id="DejaVuSerif-2f" d="M 1656 4666 
L 2156 4666 
L 500 -594 
L 0 -594 
L 1656 4666 
z
" transform="scale(0.015625)"/>
       <path id="DejaVuSerif-73" d="M 359 184 
L 359 959 
L 691 959 
Q 703 588 923 403 
Q 1144 219 1575 219 
Q 1963 219 2166 364 
Q 2369 509 2369 788 
Q 2369 1006 2220 1140 
Q 2072 1275 1594 1428 
L 1178 1569 
Q 750 1706 558 1912 
Q 366 2119 366 2438 
Q 366 2894 700 3153 
Q 1034 3413 1625 3413 
Q 1888 3413 2178 3344 
Q 2469 3275 2778 3144 
L 2778 2419 
L 2447 2419 
Q 2434 2741 2221 2922 
Q 2009 3103 1644 3103 
Q 1281 3103 1095 2975 
Q 909 2847 909 2591 
Q 909 2381 1050 2254 
Q 1191 2128 1613 1997 
L 2069 1856 
Q 2541 1709 2748 1489 
Q 2956 1269 2956 922 
Q 2956 450 2595 179 
Q 2234 -91 1600 -91 
Q 1278 -91 972 -22 
Q 666 47 359 184 
z
" transform="scale(0.015625)"/>
       <path id="DejaVuSerif-6d" d="M 3316 2675 
Q 3481 3041 3739 3227 
Q 3997 3413 4341 3413 
Q 4863 3413 5119 3089 
Q 5375 2766 5375 2113 
L 5375 331 
L 5894 331 
L 5894 0 
L 4300 0 
L 4300 331 
L 4800 331 
L 4800 2047 
Q 4800 2556 4650 2772 
Q 4500 2988 4153 2988 
Q 3769 2988 3567 2697 
Q 3366 2406 3366 1850 
L 3366 331 
L 3866 331 
L 3866 0 
L 2291 0 
L 2291 331 
L 2791 331 
L 2791 2069 
Q 2791 2566 2641 2777 
Q 2491 2988 2144 2988 
Q 1759 2988 1557 2697 
Q 1356 2406 1356 1850 
L 1356 331 
L 1856 331 
L 1856 0 
L 263 0 
L 263 331 
L 781 331 
L 781 2994 
L 231 2994 
L 231 3322 
L 1356 3322 
L 1356 2731 
Q 1516 3063 1762 3238 
Q 2009 3413 2322 3413 
Q 2709 3413 2968 3220 
Q 3228 3028 3316 2675 
z
" transform="scale(0.015625)"/>
       <path id="DejaVuSerif-70" d="M 1313 1825 
L 1313 1497 
Q 1313 897 1542 583 
Q 1772 269 2209 269 
Q 2650 269 2876 622 
Q 3103 975 3103 1663 
Q 3103 2353 2876 2703 
Q 2650 3053 2209 3053 
Q 1772 3053 1542 2737 
Q 1313 2422 1313 1825 
z
M 738 2988 
L 184 2988 
L 184 3322 
L 1313 3322 
L 1313 2803 
Q 1481 3116 1742 3264 
Q 2003 3413 2388 3413 
Q 3000 3413 3387 2928 
Q 3775 2444 3775 1663 
Q 3775 881 3387 395 
Q 3000 -91 2388 -91 
Q 2003 -91 1742 57 
Q 1481 206 1313 519 
L 1313 -997 
L 1856 -997 
L 1856 -1331 
L 184 -1331 
L 184 -997 
L 738 -997 
L 738 2988 
z
" transform="scale(0.015625)"/>
       <path id="DejaVuSerif-6c" d="M 1313 331 
L 1856 331 
L 1856 0 
L 184 0 
L 184 331 
L 738 331 
L 738 4531 
L 184 4531 
L 184 4863 
L 1313 4863 
L 1313 331 
z
" transform="scale(0.015625)"/>
       <path id="DejaVuSerif-65" d="M 3469 1600 
L 991 1600 
L 991 1575 
Q 991 903 1244 561 
Q 1497 219 1991 219 
Q 2369 219 2611 417 
Q 2853 616 2950 1006 
L 3413 1006 
Q 3275 459 2904 184 
Q 2534 -91 1931 -91 
Q 1203 -91 761 389 
Q 319 869 319 1663 
Q 319 2450 753 2931 
Q 1188 3413 1894 3413 
Q 2647 3413 3050 2948 
Q 3453 2484 3469 1600 
z
M 2791 1931 
Q 2772 2513 2545 2808 
Q 2319 3103 1894 3103 
Q 1497 3103 1269 2806 
Q 1041 2509 991 1931 
L 2791 1931 
z
" transform="scale(0.015625)"/>
       <path id="DejaVuSerif-29" d="M 453 -997 
L 453 -691 
Q 934 -359 1145 242 
Q 1356 844 1356 1931 
Q 1356 3022 1145 3623 
Q 934 4225 453 4556 
L 453 4863 
Q 1216 4522 1603 3783 
Q 1991 3044 1991 1931 
Q 1991 822 1603 83 
Q 1216 -656 453 -997 
z
" transform="scale(0.015625)"/>
      </defs>
      <use xlink:href="#DejaVuSans-Oblique-3c9" transform="translate(0 0.015625)"/>
      <use xlink:href="#DejaVuSerif-20" transform="translate(83.740234 0.015625)"/>
      <use xlink:href="#DejaVuSerif-28" transform="translate(115.527344 0.015625)"/>
      <use xlink:href="#DejaVuSerif-72" transform="translate(154.541016 0.015625)"/>
      <use xlink:href="#DejaVuSerif-61" transform="translate(202.34375 0.015625)"/>
      <use xlink:href="#DejaVuSerif-64" transform="translate(261.962891 0.015625)"/>
      <use xlink:href="#DejaVuSerif-2f" transform="translate(325.976562 0.015625)"/>
      <use xlink:href="#DejaVuSerif-73" transform="translate(359.667969 0.015625)"/>
      <use xlink:href="#DejaVuSerif-61" transform="translate(410.986328 0.015625)"/>
      <use xlink:href="#DejaVuSerif-6d" transform="translate(470.605469 0.015625)"/>
      <use xlink:href="#DejaVuSerif-70" transform="translate(565.429688 0.015625)"/>
      <use xlink:href="#DejaVuSerif-6c" transform="translate(629.443359 0.015625)"/>
      <use xlink:href="#DejaVuSerif-65" transform="translate(661.425781 0.015625)"/>
      <use xlink:href="#DejaVuSerif-29" transform="translate(720.605469 0.015625)"/>
     </g>
    </g>
   </g>
   <g id="matplotlib.axis_2">
    <g id="ytick_1">
     <g id="line2d_11">
      <path d="M 56.78 256.845832 
L 699.052617 256.845832 
" clip-path="url(#p2c04de5f60)" style="fill: none; stroke-dasharray: 0.8,1.32; stroke-dashoffset: 0; stroke: #b0b0b0; stroke-opacity: 0.6; stroke-width: 0.8"/>
     </g>
     <g id="line2d_12">
      <defs>
       <path id="m03c9a7a300" d="M 0 0 
L -3.5 0 
" style="stroke: #000000; stroke-width: 0.8"/>
      </defs>
      <g>
       <use xlink:href="#m03c9a7a300" x="56.78" y="256.845832" style="stroke: #000000; stroke-width: 0.8"/>
      </g>
     </g>
     <g id="text_7">
      <!-- −2 -->
      <g transform="translate(32.089375 261.404895) scale(0.12 -0.12)">
       <defs>
        <path id="DejaVuSerif-2212" d="M 678 2259 
L 4684 2259 
L 4684 1753 
L 678 1753 
L 678 2259 
z
" transform="scale(0.015625)"/>
        <path id="DejaVuSerif-32" d="M 819 3553 
L 469 3553 
L 469 4384 
Q 803 4563 1142 4656 
Q 1481 4750 1806 4750 
Q 2534 4750 2956 4397 
Q 3378 4044 3378 3438 
Q 3378 2753 2422 1800 
Q 2347 1728 2309 1691 
L 1131 513 
L 3078 513 
L 3078 1088 
L 3444 1088 
L 3444 0 
L 434 0 
L 434 341 
L 1850 1753 
Q 2319 2222 2519 2614 
Q 2719 3006 2719 3438 
Q 2719 3909 2473 4175 
Q 2228 4441 1797 4441 
Q 1350 4441 1106 4219 
Q 863 3997 819 3553 
z
" transform="scale(0.015625)"/>
       </defs>
       <use xlink:href="#DejaVuSerif-2212"/>
       <use xlink:href="#DejaVuSerif-32" transform="translate(83.789062 0)"/>
      </g>
     </g>
    </g>
    <g id="ytick_2">
     <g id="line2d_13">
      <path d="M 56.78 223.734166 
L 699.052617 223.734166 
" clip-path="url(#p2c04de5f60)" style="fill: none; stroke-dasharray: 0.8,1.32; stroke-dashoffset: 0; stroke: #b0b0b0; stroke-opacity: 0.6; stroke-width: 0.8"/>
     </g>
     <g id="line2d_14">
      <g>
       <use xlink:href="#m03c9a7a300" x="56.78" y="223.734166" style="stroke: #000000; stroke-width: 0.8"/>
      </g>
     </g>
     <g id="text_8">
      <!-- 0 -->
      <g transform="translate(42.145 228.293228) scale(0.12 -0.12)">
       <use xlink:href="#DejaVuSerif-30"/>
      </g>
     </g>
    </g>
    <g id="ytick_3">
     <g id="line2d_15">
      <path d="M 56.78 190.622499 
L 699.052617 190.622499 
" clip-path="url(#p2c04de5f60)" style="fill: none; stroke-dasharray: 0.8,1.32; stroke-dashoffset: 0; stroke: #b0b0b0; stroke-opacity: 0.6; stroke-width: 0.8"/>
     </g>
     <g id="line2d_16">
      <g>
       <use xlink:href="#m03c9a7a300" x="56.78" y="190.622499" style="stroke: #000000; stroke-width: 0.8"/>
      </g>
     </g>
     <g id="text_9">
      <!-- 2 -->
      <g transform="translate(42.145 195.181562) scale(0.12 -0.12)">
       <use xlink:href="#DejaVuSerif-32"/>
      </g>
     </g>
    </g>
    <g id="ytick_4">
     <g id="line2d_17">
      <path d="M 56.78 157.510833 
L 699.052617 157.510833 
" clip-path="url(#p2c04de5f60)" style="fill: none; stroke-dasharray: 0.8,1.32; stroke-dashoffset: 0; stroke: #b0b0b0; stroke-opacity: 0.6; stroke-width: 0.8"/>
     </g>
     <g id="line2d_18">
      <g>
       <use xlink:href="#m03c9a7a300" x="56.78" y="157.510833" style="stroke: #000000; stroke-width: 0.8"/>
      </g>
     </g>
     <g id="text_10">
      <!-- 4 -->
      <g transform="translate(42.145 162.069895) scale(0.12 -0.12)">
       <defs>
        <path id="DejaVuSerif-34" d="M 2234 1581 
L 2234 4063 
L 641 1581 
L 2234 1581 
z
M 3609 0 
L 1484 0 
L 1484 331 
L 2234 331 
L 2234 1247 
L 197 1247 
L 197 1588 
L 2241 4750 
L 2859 4750 
L 2859 1581 
L 3750 1581 
L 3750 1247 
L 2859 1247 
L 2859 331 
L 3609 331 
L 3609 0 
z
" transform="scale(0.015625)"/>
       </defs>
       <use xlink:href="#DejaVuSerif-34"/>
      </g>
     </g>
    </g>
    <g id="ytick_5">
     <g id="line2d_19">
      <path d="M 56.78 124.399166 
L 699.052617 124.399166 
" clip-path="url(#p2c04de5f60)" style="fill: none; stroke-dasharray: 0.8,1.32; stroke-dashoffset: 0; stroke: #b0b0b0; stroke-opacity: 0.6; stroke-width: 0.8"/>
     </g>
     <g id="line2d_20">
      <g>
       <use xlink:href="#m03c9a7a300" x="56.78" y="124.399166" style="stroke: #000000; stroke-width: 0.8"/>
      </g>
     </g>
     <g id="text_11">
      <!-- 6 -->
      <g transform="translate(42.145 128.958229) scale(0.12 -0.12)">
       <defs>
        <path id="DejaVuSerif-36" d="M 2094 219 
Q 2534 219 2771 542 
Q 3009 866 3009 1472 
Q 3009 2078 2771 2401 
Q 2534 2725 2094 2725 
Q 1647 2725 1412 2412 
Q 1178 2100 1178 1509 
Q 1178 888 1415 553 
Q 1653 219 2094 219 
z
M 1075 2569 
Q 1288 2803 1556 2918 
Q 1825 3034 2163 3034 
Q 2859 3034 3264 2615 
Q 3669 2197 3669 1472 
Q 3669 763 3233 336 
Q 2797 -91 2069 -91 
Q 1278 -91 853 498 
Q 428 1088 428 2181 
Q 428 3406 931 4078 
Q 1434 4750 2350 4750 
Q 2597 4750 2869 4703 
Q 3141 4656 3425 4563 
L 3425 3794 
L 3072 3794 
Q 3034 4109 2831 4275 
Q 2628 4441 2284 4441 
Q 1678 4441 1381 3981 
Q 1084 3522 1075 2569 
z
" transform="scale(0.015625)"/>
       </defs>
       <use xlink:href="#DejaVuSerif-36"/>
      </g>
     </g>
    </g>
    <g id="ytick_6">
     <g id="line2d_21">
      <path d="M 56.78 91.2875 
L 699.052617 91.2875 
" clip-path="url(#p2c04de5f60)" style="fill: none; stroke-dasharray: 0.8,1.32; stroke-dashoffset: 0; stroke: #b0b0b0; stroke-opacity: 0.6; stroke-width: 0.8"/>
     </g>
     <g id="line2d_22">
      <g>
       <use xlink:href="#m03c9a7a300" x="56.78" y="91.2875" style="stroke: #000000; stroke-width: 0.8"/>
      </g>
     </g>
     <g id="text_12">
      <!-- 8 -->
      <g transform="translate(42.145 95.846562) scale(0.12 -0.12)">
       <defs>
        <path id="DejaVuSerif-38" d="M 2981 1275 
Q 2981 1775 2732 2051 
Q 2484 2328 2034 2328 
Q 1584 2328 1336 2051 
Q 1088 1775 1088 1275 
Q 1088 772 1336 495 
Q 1584 219 2034 219 
Q 2484 219 2732 495 
Q 2981 772 2981 1275 
z
M 2853 3541 
Q 2853 3966 2637 4203 
Q 2422 4441 2034 4441 
Q 1650 4441 1433 4203 
Q 1216 3966 1216 3541 
Q 1216 3113 1433 2875 
Q 1650 2638 2034 2638 
Q 2422 2638 2637 2875 
Q 2853 3113 2853 3541 
z
M 2516 2484 
Q 3047 2413 3344 2092 
Q 3641 1772 3641 1275 
Q 3641 619 3225 264 
Q 2809 -91 2034 -91 
Q 1263 -91 845 264 
Q 428 619 428 1275 
Q 428 1772 725 2092 
Q 1022 2413 1556 2484 
Q 1084 2569 832 2842 
Q 581 3116 581 3541 
Q 581 4103 968 4426 
Q 1356 4750 2034 4750 
Q 2713 4750 3100 4426 
Q 3488 4103 3488 3541 
Q 3488 3116 3236 2842 
Q 2984 2569 2516 2484 
z
" transform="scale(0.015625)"/>
       </defs>
       <use xlink:href="#DejaVuSerif-38"/>
      </g>
     </g>
    </g>
    <g id="ytick_7">
     <g id="line2d_23">
      <path d="M 56.78 58.175833 
L 699.052617 58.175833 
" clip-path="url(#p2c04de5f60)" style="fill: none; stroke-dasharray: 0.8,1.32; stroke-dashoffset: 0; stroke: #b0b0b0; stroke-opacity: 0.6; stroke-width: 0.8"/>
     </g>
     <g id="line2d_24">
      <g>
       <use xlink:href="#m03c9a7a300" x="56.78" y="58.175833" style="stroke: #000000; stroke-width: 0.8"/>
      </g>
     </g>
     <g id="text_13">
      <!-- 10 -->
      <g transform="translate(34.51 62.734896) scale(0.12 -0.12)">
       <defs>
        <path id="DejaVuSerif-31" d="M 909 0 
L 909 331 
L 1722 331 
L 1722 4213 
L 781 3603 
L 781 4013 
L 1919 4750 
L 2350 4750 
L 2350 331 
L 3163 331 
L 3163 0 
L 909 0 
z
" transform="scale(0.015625)"/>
       </defs>
       <use xlink:href="#DejaVuSerif-31"/>
       <use xlink:href="#DejaVuSerif-30" transform="translate(63.623047 0)"/>
      </g>
     </g>
    </g>
    <g id="text_14">
     <!-- $X(e^{j\omega})$ -->
     <g transform="translate(25.59375 170.66) rotate(-90) scale(0.12 -0.12)">
      <defs>
       <path id="DejaVuSans-Oblique-58" d="M 878 4666 
L 1516 4666 
L 2316 2981 
L 3763 4666 
L 4500 4666 
L 2578 2438 
L 3738 0 
L 3103 0 
L 2163 1966 
L 459 0 
L -275 0 
L 1906 2509 
L 878 4666 
z
" transform="scale(0.015625)"/>
       <path id="DejaVuSans-28" d="M 1984 4856 
Q 1566 4138 1362 3434 
Q 1159 2731 1159 2009 
Q 1159 1288 1364 580 
Q 1569 -128 1984 -844 
L 1484 -844 
Q 1016 -109 783 600 
Q 550 1309 550 2009 
Q 550 2706 781 3412 
Q 1013 4119 1484 4856 
L 1984 4856 
z
" transform="scale(0.015625)"/>
       <path id="DejaVuSans-Oblique-65" d="M 3078 2063 
Q 3088 2113 3092 2166 
Q 3097 2219 3097 2272 
Q 3097 2653 2873 2875 
Q 2650 3097 2266 3097 
Q 1838 3097 1509 2826 
Q 1181 2556 1013 2059 
L 3078 2063 
z
M 3578 1613 
L 903 1613 
Q 884 1494 878 1425 
Q 872 1356 872 1306 
Q 872 872 1139 634 
Q 1406 397 1894 397 
Q 2269 397 2603 481 
Q 2938 566 3225 728 
L 3116 159 
Q 2806 34 2476 -28 
Q 2147 -91 1806 -91 
Q 1078 -91 686 257 
Q 294 606 294 1247 
Q 294 1794 489 2264 
Q 684 2734 1063 3103 
Q 1306 3334 1642 3459 
Q 1978 3584 2356 3584 
Q 2950 3584 3301 3228 
Q 3653 2872 3653 2272 
Q 3653 2128 3634 1964 
Q 3616 1800 3578 1613 
z
" transform="scale(0.015625)"/>
       <path id="DejaVuSans-Oblique-6a" d="M 928 3500 
L 1503 3500 
L 813 -63 
L 809 -78 
Q 694 -675 544 -897 
Q 403 -1106 132 -1218 
Q -138 -1331 -506 -1331 
L -722 -1331 
L -628 -844 
L -481 -844 
Q -144 -844 -1 -703 
Q 141 -563 238 -63 
L 928 3500 
z
M 1197 4863 
L 1772 4863 
L 1631 4134 
L 1056 4134 
L 1197 4863 
z
" transform="scale(0.015625)"/>
       <path id="DejaVuSans-29" d="M 513 4856 
L 1013 4856 
Q 1481 4119 1714 3412 
Q 1947 2706 1947 2009 
Q 1947 1309 1714 600 
Q 1481 -109 1013 -844 
L 513 -844 
Q 928 -128 1133 580 
Q 1338 1288 1338 2009 
Q 1338 2731 1133 3434 
Q 928 4138 513 4856 
z
" transform="scale(0.015625)"/>
      </defs>
      <use xlink:href="#DejaVuSans-Oblique-58" transform="translate(0 0.529687)"/>
      <use xlink:href="#DejaVuSans-28" transform="translate(68.505859 0.529687)"/>
      <use xlink:href="#DejaVuSans-Oblique-65" transform="translate(107.519531 0.529687)"/>
      <use xlink:href="#DejaVuSans-Oblique-6a" transform="translate(173.692865 38.810937) scale(0.7)"/>
      <use xlink:href="#DejaVuSans-Oblique-3c9" transform="translate(193.141107 38.810937) scale(0.7)"/>
      <use xlink:href="#DejaVuSans-29" transform="translate(254.493646 0.529687)"/>
     </g>
    </g>
   </g>
   <g id="line2d_25">
    <path d="M 56.78 174.066666 
L 60.95686 174.177173 
L 65.133721 174.507957 
L 69.310581 175.056809 
L 73.487442 175.820067 
L 77.985599 176.87594 
L 82.483757 178.16637 
L 86.981914 179.681367 
L 91.801368 181.540423 
L 96.94212 183.77405 
L 102.404168 186.405932 
L 108.187513 189.450277 
L 114.613452 193.097024 
L 122.003282 197.561855 
L 131.642191 203.672372 
L 153.811681 217.835074 
L 161.201511 222.240845 
L 167.62745 225.819536 
L 173.410795 228.79027 
L 178.872844 231.342754 
L 184.013595 233.493713 
L 188.833049 235.269031 
L 193.331207 236.701098 
L 197.829364 237.904644 
L 202.327522 238.870352 
L 206.504382 239.547556 
L 210.681242 240.008702 
L 214.858103 240.250711 
L 219.034963 240.271968 
L 223.211824 240.072331 
L 227.388684 239.653133 
L 231.565545 239.017172 
L 235.742405 238.168692 
L 240.240562 237.023803 
L 244.73872 235.647895 
L 249.558174 233.929482 
L 254.377629 231.973386 
L 259.51838 229.644524 
L 264.980428 226.921864 
L 270.763773 223.794218 
L 277.51101 219.879661 
L 285.222136 215.13939 
L 296.46753 207.932814 
L 312.211081 197.861046 
L 320.243505 193.002898 
L 326.669444 189.362462 
L 332.452789 186.324987 
L 337.914837 183.700544 
L 343.055589 181.474687 
L 347.875043 179.623521 
L 352.694497 178.017177 
L 357.192655 176.751432 
L 361.690812 175.721207 
L 365.867673 174.982455 
L 370.044533 174.458605 
L 374.221394 174.153153 
L 378.398254 174.068138 
L 382.575114 174.204127 
L 386.751975 174.560213 
L 390.928835 175.134019 
L 395.105696 175.921715 
L 399.603853 177.003143 
L 404.102011 178.318143 
L 408.600168 179.856535 
L 413.419622 181.739148 
L 418.560374 183.995951 
L 424.022422 186.649996 
L 429.805767 189.714766 
L 436.231706 193.380231 
L 443.621536 197.861046 
L 453.260445 203.982994 
L 474.787341 217.736483 
L 482.177171 222.148087 
L 488.60311 225.733429 
L 494.386456 228.711314 
L 499.848504 231.271481 
L 504.989255 233.430415 
L 509.808709 235.213793 
L 514.306867 236.653827 
L 518.805024 237.865706 
L 523.303182 238.840048 
L 527.480042 239.525481 
L 531.656903 239.995003 
L 535.833763 240.245479 
L 540.010623 240.275239 
L 544.187484 240.084083 
L 548.364344 239.673287 
L 552.541205 239.045593 
L 556.718065 238.205192 
L 561.216223 237.068728 
L 565.71438 235.700898 
L 570.533834 233.990682 
L 575.353289 232.04224 
L 580.49404 229.720867 
L 585.956088 227.005316 
L 591.739434 223.884158 
L 598.165373 220.167434 
L 605.8765 215.4421 
L 616.800596 208.452941 
L 633.508038 197.761223 
L 641.219165 193.097024 
L 647.966401 189.274824 
L 653.749746 186.244248 
L 659.211795 183.62727 
L 664.352546 181.409205 
L 669.172 179.565946 
L 673.991455 177.968022 
L 678.489612 176.71053 
L 682.987769 175.688875 
L 687.16463 174.958307 
L 691.34149 174.442801 
L 695.518351 174.145799 
L 699.052617 174.066666 
L 699.052617 174.066666 
" clip-path="url(#p2c04de5f60)" style="fill: none; stroke: #482475; stroke-width: 1.5; stroke-linecap: square"/>
   </g>
   <g id="line2d_26">
    <path d="M 56.78 140.955 
L 58.707782 141.072718 
L 60.635563 141.425302 
L 62.563345 142.011049 
L 64.491127 142.827129 
L 66.418909 143.8696 
L 68.667987 145.365182 
L 70.917066 147.152209 
L 73.166145 149.21898 
L 75.73652 151.906137 
L 78.306896 154.918085 
L 81.198569 158.662812 
L 84.411538 163.218806 
L 87.945805 168.641386 
L 92.122665 175.490639 
L 97.584714 184.928903 
L 111.079186 208.479364 
L 115.256046 215.244116 
L 118.790313 220.59125 
L 122.003282 225.087777 
L 124.894955 228.796829 
L 127.786628 232.154483 
L 130.357003 234.82344 
L 132.927379 237.180119 
L 135.497754 239.213247 
L 137.746833 240.72049 
L 139.995912 241.970666 
L 142.244991 242.96255 
L 144.494069 243.696895 
L 146.743148 244.176409 
L 148.992227 244.405718 
L 151.241305 244.391317 
L 153.490384 244.141499 
L 155.739463 243.666278 
L 157.988541 242.977297 
L 160.558917 241.945092 
L 163.129293 240.672808 
L 166.020965 238.984512 
L 169.233935 236.833096 
L 172.768202 234.19448 
L 177.266359 230.541341 
L 193.652504 216.926129 
L 197.18677 214.416526 
L 200.39974 212.393417 
L 203.291412 210.818016 
L 206.183085 209.501671 
L 208.753461 208.566325 
L 211.323836 207.864378 
L 213.894212 207.404722 
L 216.464588 207.193174 
L 219.034963 207.232407 
L 221.605339 207.521924 
L 224.175715 208.058066 
L 226.74609 208.834049 
L 229.316466 209.840032 
L 232.208139 211.230655 
L 235.099811 212.873665 
L 238.312781 214.962694 
L 241.847047 217.532017 
L 246.023908 220.850528 
L 252.12855 226.018572 
L 260.160974 232.791151 
L 264.337834 236.02113 
L 267.872101 238.471946 
L 270.763773 240.22973 
L 273.655446 241.724129 
L 276.225822 242.803084 
L 278.796197 243.624007 
L 281.045276 244.114901 
L 283.294355 244.381171 
L 285.543433 244.412684 
L 287.792512 244.201019 
L 290.041591 243.739553 
L 292.29067 243.023523 
L 294.539748 242.050083 
L 296.788827 240.818339 
L 299.037906 239.329376 
L 301.286984 237.586261 
L 303.85736 235.289489 
L 306.427736 232.678075 
L 308.998111 229.765932 
L 311.889784 226.151668 
L 315.102753 221.750061 
L 318.63702 216.492836 
L 322.492583 210.341469 
L 327.312038 202.193284 
L 335.023165 188.616122 
L 342.412995 175.761744 
L 346.911152 168.386703 
L 350.445419 162.981988 
L 353.658388 158.445504 
L 356.550061 154.720794 
L 359.120437 151.728423 
L 361.690812 149.062354 
L 363.939891 147.015138 
L 366.18897 145.248562 
L 368.438048 143.774196 
L 370.36583 142.750414 
L 372.293612 141.953393 
L 374.221394 141.386984 
L 376.149175 141.053922 
L 378.076957 140.955817 
L 380.004739 141.093145 
L 381.932521 141.465241 
L 383.860302 142.070306 
L 385.788084 142.905417 
L 387.715866 143.966542 
L 389.964944 145.483289 
L 392.214023 147.290708 
L 394.463102 149.376964 
L 397.033478 152.085121 
L 399.603853 155.116546 
L 402.495526 158.881166 
L 405.708495 163.45652 
L 409.242762 168.896788 
L 413.419622 175.761744 
L 418.881671 185.21162 
L 432.054846 208.21117 
L 436.231706 214.992169 
L 440.08727 220.824785 
L 443.300239 225.302563 
L 446.191912 228.99284 
L 449.083585 232.330183 
L 451.65396 234.980015 
L 454.224336 237.316768 
L 456.794712 239.329376 
L 459.04379 240.818339 
L 461.292869 242.050083 
L 463.541948 243.023523 
L 465.791026 243.739553 
L 468.040105 244.201019 
L 470.289184 244.412684 
L 472.538262 244.381171 
L 474.787341 244.114901 
L 477.03642 243.624007 
L 479.285499 242.920243 
L 481.855874 241.872368 
L 484.42625 240.585857 
L 487.317922 238.883432 
L 490.530892 236.718827 
L 494.065159 234.068941 
L 498.563316 230.406583 
L 514.306867 217.288233 
L 518.16243 214.524542 
L 521.3754 212.488042 
L 524.267073 210.898959 
L 527.158745 209.567624 
L 529.729121 208.618055 
L 532.299496 207.901228 
L 534.869872 207.426227 
L 537.440248 207.199061 
L 540.010623 207.222601 
L 542.580999 207.49655 
L 545.151375 208.017445 
L 547.72175 208.778694 
L 550.292126 209.770648 
L 553.183799 211.146551 
L 556.075471 212.7762 
L 559.288441 214.852254 
L 562.822707 217.409891 
L 566.999568 220.718504 
L 573.10421 225.880478 
L 581.457931 232.920652 
L 585.634791 236.138816 
L 589.169058 238.575879 
L 592.06073 240.319998 
L 594.952403 241.798712 
L 597.522779 242.86217 
L 600.093154 243.666278 
L 602.342233 244.141499 
L 604.591312 244.391317 
L 606.840391 244.405718 
L 609.089469 244.176409 
L 611.338548 243.696895 
L 613.587627 242.96255 
L 615.836705 241.970666 
L 618.085784 240.72049 
L 620.334863 239.213247 
L 622.583941 237.452149 
L 625.154317 235.135365 
L 627.724693 232.504715 
L 630.295068 229.574311 
L 633.186741 225.940908 
L 636.399711 221.520084 
L 639.933977 216.244584 
L 643.789541 210.077143 
L 648.608995 201.91515 
L 656.641419 187.76334 
L 663.709952 175.490639 
L 668.208109 168.132746 
L 671.742376 162.746074 
L 674.955345 158.229249 
L 677.847018 154.524679 
L 680.417394 151.551984 
L 682.987769 148.907093 
L 685.236848 146.879499 
L 687.485927 145.133434 
L 689.735005 143.680334 
L 691.662787 142.675274 
L 693.590569 141.897339 
L 695.518351 141.350286 
L 697.446132 141.036758 
L 699.052617 140.955 
L 699.052617 140.955 
" clip-path="url(#p2c04de5f60)" style="fill: none; stroke: #355f8d; stroke-width: 1.5; stroke-linecap: square"/>
   </g>
   <g id="line2d_27">
    <path d="M 56.78 107.843333 
L 58.065188 107.989832 
L 59.350376 108.428679 
L 60.635563 109.157934 
L 61.920751 110.174373 
L 63.205939 111.473506 
L 64.491127 113.049598 
L 66.097612 115.398492 
L 67.704097 118.153045 
L 69.631878 121.967188 
L 71.55966 126.300579 
L 73.808739 131.955512 
L 76.379114 139.115963 
L 79.270787 147.912796 
L 82.805054 159.461618 
L 88.267102 178.220226 
L 94.371744 198.987167 
L 97.906011 210.220476 
L 100.797683 218.698956 
L 103.368059 225.565989 
L 105.617137 230.984155 
L 107.866216 235.799231 
L 109.793998 239.416568 
L 111.72178 242.543642 
L 113.328264 244.765879 
L 114.934749 246.634871 
L 116.541234 248.149446 
L 118.147719 249.311269 
L 119.432907 249.989646 
L 120.718094 250.448593 
L 122.003282 250.692724 
L 123.28847 250.727695 
L 124.573658 250.560161 
L 125.858846 250.197735 
L 127.465331 249.483678 
L 129.071815 248.496918 
L 130.6783 247.257785 
L 132.606082 245.46877 
L 134.533864 243.388824 
L 136.782942 240.652236 
L 139.674615 236.754031 
L 143.851475 230.667883 
L 150.598711 220.795746 
L 153.811681 216.532344 
L 156.382057 213.489276 
L 158.631135 211.158402 
L 160.558917 209.440181 
L 162.486699 208.002615 
L 164.414481 206.862192 
L 166.020965 206.147414 
L 167.62745 205.651394 
L 169.233935 205.37597 
L 170.84042 205.320637 
L 172.446905 205.482586 
L 174.053389 205.856759 
L 175.659874 206.435928 
L 177.587656 207.388294 
L 179.515438 208.6026 
L 181.764516 210.31885 
L 184.013595 212.316615 
L 186.583971 214.882517 
L 190.118237 218.763042 
L 201.042334 231.091143 
L 203.934006 233.869734 
L 206.183085 235.753753 
L 208.432164 237.350575 
L 210.359945 238.46461 
L 212.287727 239.324948 
L 214.215509 239.918114 
L 215.821994 240.201502 
L 217.428479 240.289754 
L 219.034963 240.18191 
L 220.641448 239.879142 
L 222.56923 239.263299 
L 224.497012 238.381248 
L 226.424793 237.246807 
L 228.673872 235.62826 
L 230.922951 233.725204 
L 233.493326 231.254574 
L 236.706296 227.825716 
L 241.52575 222.290644 
L 246.987799 216.081059 
L 250.200768 212.776796 
L 252.771144 210.452755 
L 255.020223 208.714905 
L 256.948004 207.479782 
L 258.875786 206.504779 
L 260.803568 205.809981 
L 262.410053 205.45674 
L 264.016537 205.316328 
L 265.623022 205.393582 
L 267.229507 205.691082 
L 268.835992 206.209099 
L 270.442476 206.94556 
L 272.048961 207.896037 
L 273.976743 209.309406 
L 275.904525 211.004983 
L 278.153603 213.311908 
L 280.402682 215.933968 
L 282.973058 219.254328 
L 286.186027 223.767451 
L 297.752718 240.445742 
L 300.323093 243.572225 
L 302.572172 245.944936 
L 304.499954 247.654745 
L 306.106439 248.820405 
L 307.712923 249.727407 
L 309.319408 250.355963 
L 310.604596 250.646254 
L 311.889784 250.73869 
L 313.174972 250.626012 
L 314.46016 250.301933 
L 315.745347 249.761183 
L 317.030535 248.999549 
L 318.315723 248.013912 
L 319.922208 246.463924 
L 321.528693 244.559507 
L 323.135177 242.302121 
L 324.741662 239.696093 
L 326.669444 236.118992 
L 328.597226 232.068216 
L 330.846304 226.775477 
L 333.095383 220.917518 
L 335.665759 213.603987 
L 338.557431 204.707112 
L 342.091698 193.10101 
L 347.875043 173.209465 
L 353.337091 154.65168 
L 356.871358 143.426993 
L 359.763031 135.003069 
L 362.333406 128.249463 
L 364.582485 123.003436 
L 366.510267 119.055758 
L 368.438048 115.655983 
L 370.044533 113.265751 
L 371.651018 111.295839 
L 372.936206 110.031754 
L 374.221394 109.050993 
L 375.506581 108.357889 
L 376.791769 107.955506 
L 378.076957 107.845623 
L 379.362145 108.028727 
L 380.647333 108.504008 
L 381.932521 109.269363 
L 383.217708 110.32141 
L 384.502896 111.655502 
L 386.109381 113.710657 
L 387.715866 116.183071 
L 389.322351 119.055758 
L 391.250132 123.003436 
L 393.177914 127.46018 
L 395.426993 133.244613 
L 397.997368 140.532093 
L 400.889041 149.442744 
L 404.423308 161.085985 
L 410.849247 183.22255 
L 415.989998 200.565376 
L 419.524265 211.683225 
L 422.415937 220.037726 
L 424.986313 226.775477 
L 427.235392 232.068216 
L 429.163173 236.118992 
L 431.090955 239.696093 
L 433.018737 242.781669 
L 434.625222 244.968716 
L 436.231706 246.802272 
L 437.838191 248.28145 
L 439.444676 249.408197 
L 440.729864 250.05893 
L 442.015052 250.490751 
L 443.300239 250.708407 
L 444.585427 250.71768 
L 445.870615 250.52535 
L 447.155803 250.139142 
L 448.762288 249.396952 
L 450.368772 248.384011 
L 451.975257 247.120825 
L 453.903039 245.305972 
L 456.152118 242.828394 
L 458.722493 239.606752 
L 461.935463 235.153317 
L 467.397511 227.075594 
L 471.895669 220.572708 
L 474.787341 216.734443 
L 477.357717 213.668239 
L 479.606796 211.313626 
L 481.534577 209.572908 
L 483.462359 208.111259 
L 485.390141 206.94556 
L 486.996626 206.209099 
L 488.60311 205.691082 
L 490.209595 205.393582 
L 491.81608 205.316328 
L 493.422565 205.45674 
L 495.029049 205.809981 
L 496.635534 206.369036 
L 498.563316 207.298628 
L 500.491098 208.491953 
L 502.740176 210.186385 
L 504.989255 212.165582 
L 507.559631 214.714677 
L 510.7726 218.216599 
L 522.981885 231.898387 
L 525.55226 234.295692 
L 527.801339 236.121371 
L 530.050418 237.651978 
L 531.9782 238.704075 
L 533.905981 239.498722 
L 535.833763 240.023477 
L 537.440248 240.248552 
L 539.046733 240.277979 
L 540.653217 240.111438 
L 542.259702 239.750739 
L 544.187484 239.067274 
L 546.115266 238.12067 
L 548.043047 236.925763 
L 550.292126 235.243111 
L 552.541205 233.284207 
L 555.11158 230.761434 
L 558.32455 227.28713 
L 564.107895 220.609428 
L 568.606053 215.562528 
L 571.497725 212.622241 
L 574.068101 210.31885 
L 576.31718 208.6026 
L 578.244961 207.388294 
L 580.172743 206.435928 
L 581.779228 205.856759 
L 583.385713 205.482586 
L 584.992197 205.320637 
L 586.598682 205.37597 
L 588.205167 205.651394 
L 589.811652 206.147414 
L 591.418137 206.862192 
L 593.024621 207.791533 
L 594.952403 209.180593 
L 596.880185 210.853382 
L 599.129264 213.136151 
L 601.378342 215.737213 
L 603.948718 219.038112 
L 607.161687 223.534707 
L 613.587627 233.047736 
L 617.44319 238.530736 
L 620.334863 242.253166 
L 622.583941 244.805692 
L 624.511723 246.696343 
L 626.439505 248.2686 
L 628.04599 249.307517 
L 629.652474 250.077654 
L 631.258959 250.560161 
L 632.544147 250.727695 
L 633.829335 250.692724 
L 635.114523 250.448593 
L 636.399711 249.989646 
L 637.684898 249.311269 
L 638.970086 248.409928 
L 640.576571 246.966127 
L 642.183056 245.168015 
L 643.789541 243.016196 
L 645.396025 240.514136 
L 647.323807 237.058472 
L 649.251589 233.124122 
L 651.500668 227.958976 
L 653.749746 222.21767 
L 656.320122 215.021456 
L 659.211795 206.232885 
L 662.746061 194.720416 
L 667.886812 177.106553 
L 674.312751 155.180924 
L 677.847018 143.917221 
L 680.738691 135.449567 
L 683.309066 128.648889 
L 685.558145 123.355959 
L 687.485927 119.364306 
L 689.413708 115.917516 
L 691.020193 113.486109 
L 692.626678 111.473506 
L 693.911866 110.174373 
L 695.197054 109.157934 
L 696.482242 108.428679 
L 697.767429 107.989832 
L 699.052617 107.843333 
L 699.052617 107.843333 
" clip-path="url(#p2c04de5f60)" style="fill: none; stroke: #21918c; stroke-width: 1.5; stroke-linecap: square"/>
   </g>
   <g id="line2d_28">
    <path d="M 56.78 74.731667 
L 57.422594 74.810165 
L 58.065188 75.045512 
L 59.029079 75.691588 
L 59.99297 76.68681 
L 60.95686 78.027008 
L 61.920751 79.70657 
L 63.205939 82.461543 
L 64.491127 85.786731 
L 66.097612 90.70718 
L 67.704097 96.423074 
L 69.631878 104.239132 
L 71.55966 112.977204 
L 73.808739 124.146076 
L 76.700411 139.667382 
L 81.519866 167.01226 
L 86.33932 193.931396 
L 89.230993 208.849986 
L 91.480071 219.441844 
L 93.72915 228.947058 
L 95.656932 236.115462 
L 97.263417 241.341815 
L 98.869901 245.854714 
L 100.476386 249.632832 
L 101.761574 252.118475 
L 103.046762 254.125561 
L 104.33195 255.657213 
L 105.295841 256.498097 
L 106.259731 257.079943 
L 107.223622 257.4084 
L 108.187513 257.490266 
L 109.151404 257.333437 
L 110.115295 256.946855 
L 111.079186 256.340443 
L 112.364374 255.208805 
L 113.649561 253.733757 
L 114.934749 251.945697 
L 116.541234 249.32005 
L 118.469016 245.685375 
L 120.718094 240.931752 
L 123.931064 233.560285 
L 129.393112 220.946803 
L 131.963488 215.591098 
L 133.89127 212.015739 
L 135.819051 208.9072 
L 137.425536 206.71998 
L 139.032021 204.930479 
L 140.317209 203.799638 
L 141.602397 202.944066 
L 142.887584 202.367611 
L 144.172772 202.070875 
L 145.45796 202.051272 
L 146.743148 202.303116 
L 148.028336 202.817734 
L 149.313524 203.583622 
L 150.598711 204.586612 
L 152.205196 206.148235 
L 153.811681 208.01688 
L 155.739463 210.605095 
L 157.988541 213.999947 
L 161.201511 219.289555 
L 166.984856 228.894038 
L 169.555232 232.698514 
L 171.483014 235.205047 
L 173.410795 237.343753 
L 175.01728 238.807241 
L 176.623765 239.955326 
L 177.908953 240.634666 
L 179.194141 241.094682 
L 180.479328 241.331948 
L 181.764516 241.345709 
L 183.049704 241.137868 
L 184.334892 240.712939 
L 185.62008 240.077975 
L 187.226565 239.003593 
L 188.833049 237.639606 
L 190.760831 235.661328 
L 192.688613 233.365904 
L 195.258988 229.927303 
L 199.114552 224.315694 
L 203.612709 217.82604 
L 206.183085 214.498788 
L 208.110867 212.311897 
L 210.038649 210.456181 
L 211.645133 209.199304 
L 213.251618 208.231125 
L 214.536806 207.676849 
L 215.821994 207.32574 
L 217.107182 207.182013 
L 218.392369 207.247392 
L 219.677557 207.521094 
L 220.962745 207.999833 
L 222.56923 208.877601 
L 224.175715 210.050108 
L 225.782199 211.495328 
L 227.709981 213.550955 
L 229.95906 216.320867 
L 232.850732 220.310426 
L 242.168344 233.567733 
L 244.417423 236.188055 
L 246.345205 238.077595 
L 247.951689 239.357493 
L 249.558174 240.340149 
L 250.843362 240.897334 
L 252.12855 241.241547 
L 253.413738 241.366678 
L 254.698926 241.269183 
L 255.984113 240.948154 
L 257.269301 240.405347 
L 258.554489 239.645186 
L 260.160974 238.400349 
L 261.767459 236.846594 
L 263.69524 234.610623 
L 265.623022 232.021538 
L 267.872101 228.642114 
L 271.08507 223.373222 
L 277.189713 213.244652 
L 279.438791 209.92653 
L 281.366573 207.426466 
L 282.973058 205.645715 
L 284.579543 204.183709 
L 285.86473 203.267812 
L 287.149918 202.594629 
L 288.435106 202.177351 
L 289.720294 202.026441 
L 291.005482 202.149466 
L 292.29067 202.550964 
L 293.575857 203.232332 
L 294.861045 204.191756 
L 296.146233 205.424165 
L 297.752718 207.335548 
L 299.359203 209.636811 
L 301.286984 212.868643 
L 303.214766 216.548978 
L 305.785142 222.010307 
L 309.319408 230.15588 
L 314.46016 241.987785 
L 316.709238 246.637586 
L 318.63702 250.149842 
L 320.243505 252.650882 
L 321.528693 254.325261 
L 322.81388 255.674973 
L 324.099068 256.670471 
L 325.062959 257.168267 
L 326.02685 257.441154 
L 326.990741 257.479689 
L 327.954632 257.275447 
L 328.918523 256.821074 
L 329.882414 256.110341 
L 330.846304 255.138191 
L 331.810195 253.900778 
L 333.095383 251.83396 
L 334.380571 249.288482 
L 335.665759 246.265855 
L 337.272244 241.825642 
L 338.878728 236.669385 
L 340.80651 229.580265 
L 342.734292 221.57576 
L 344.98337 211.202496 
L 347.553746 198.200289 
L 350.766716 180.684885 
L 361.369515 121.67551 
L 363.939891 109.233146 
L 365.867673 100.862669 
L 367.795454 93.4696 
L 369.401939 88.14376 
L 371.008424 83.6429 
L 372.293612 80.671472 
L 373.5788 78.283541 
L 374.542691 76.886353 
L 375.506581 75.833306 
L 376.470472 75.128812 
L 377.434363 74.775825 
L 378.076957 74.736573 
L 378.719551 74.854309 
L 379.683442 75.324703 
L 380.647333 76.145782 
L 381.611224 77.314104 
L 382.575114 78.824775 
L 383.860302 81.360415 
L 385.14549 84.474438 
L 386.430678 88.14376 
L 388.037163 93.4696 
L 389.643648 99.559123 
L 391.571429 107.775836 
L 393.820508 118.44401 
L 396.390884 131.772517 
L 399.92515 151.401997 
L 407.957574 196.503057 
L 410.849247 211.202496 
L 413.098325 221.57576 
L 415.026107 229.580265 
L 416.953889 236.669385 
L 418.560374 241.825642 
L 420.166858 246.265855 
L 421.773343 249.969714 
L 423.058531 252.395507 
L 424.343719 254.342909 
L 425.628907 255.815553 
L 426.592798 256.612922 
L 427.556688 257.152113 
L 428.520579 257.438969 
L 429.48447 257.480475 
L 430.448361 257.284706 
L 431.412252 256.86077 
L 432.376143 256.218751 
L 433.661331 255.042602 
L 434.946518 253.52672 
L 436.553003 251.201041 
L 438.159488 248.456826 
L 440.08727 244.707338 
L 442.657645 239.135602 
L 446.834506 229.400068 
L 450.690069 220.595895 
L 453.260445 215.277146 
L 455.188227 211.737882 
L 457.116009 208.671342 
L 458.722493 206.522723 
L 460.328978 204.774282 
L 461.614166 203.677527 
L 462.899354 202.856701 
L 464.184542 202.315244 
L 465.469729 202.053356 
L 466.754917 202.068058 
L 468.040105 202.353282 
L 469.325293 202.899995 
L 470.610481 203.696347 
L 471.895669 204.727855 
L 473.502153 206.321942 
L 475.108638 208.21905 
L 477.03642 210.835544 
L 479.285499 214.254579 
L 482.819765 220.105528 
L 487.960516 228.642114 
L 490.530892 232.474927 
L 492.458674 235.009421 
L 494.386456 237.180919 
L 495.99294 238.674741 
L 497.599425 239.855261 
L 498.884613 240.561644 
L 500.169801 241.049317 
L 501.454989 241.314523 
L 502.740176 241.356172 
L 504.025364 241.175838 
L 505.310552 240.77771 
L 506.59574 240.16853 
L 508.202225 239.124494 
L 509.808709 237.788256 
L 511.736491 235.839159 
L 513.664273 233.567733 
L 516.234649 230.152068 
L 520.090212 224.553663 
L 524.909666 217.606902 
L 527.480042 214.305293 
L 529.407824 212.143848 
L 531.335606 210.318134 
L 532.94209 209.089151 
L 534.548575 208.150934 
L 535.833763 207.62174 
L 537.118951 207.296373 
L 538.404139 207.178742 
L 539.689326 207.270256 
L 540.974514 207.569818 
L 542.259702 208.073832 
L 543.866187 208.98191 
L 545.472672 210.182768 
L 547.079156 211.653844 
L 549.006938 213.736521 
L 551.256017 216.531575 
L 554.14769 220.541876 
L 562.822707 232.957047 
L 565.071786 235.661328 
L 566.999568 237.639606 
L 568.606053 239.003593 
L 570.212537 240.077975 
L 571.497725 240.712939 
L 572.782913 241.137868 
L 574.068101 241.345709 
L 575.353289 241.331948 
L 576.638477 241.094682 
L 577.923664 240.634666 
L 579.208852 239.955326 
L 580.815337 238.807241 
L 582.421822 237.343753 
L 584.028307 235.588583 
L 585.956088 233.139277 
L 588.205167 229.886851 
L 591.09684 225.257 
L 599.45056 211.538992 
L 601.699639 208.423829 
L 603.627421 206.148235 
L 605.233906 204.586612 
L 606.840391 203.369324 
L 608.125578 202.665027 
L 609.410766 202.215132 
L 610.695954 202.030451 
L 611.981142 202.118923 
L 613.26633 202.485469 
L 614.551517 203.131886 
L 615.836705 204.056764 
L 617.121893 205.255438 
L 618.407081 206.71998 
L 620.013566 208.9072 
L 621.620051 211.463317 
L 623.547832 214.965947 
L 625.796911 219.554773 
L 628.688584 226.024821 
L 636.721008 244.375921 
L 638.970086 248.748167 
L 640.576571 251.453537 
L 642.183056 253.733757 
L 643.468244 255.208805 
L 644.753431 256.340443 
L 645.717322 256.946855 
L 646.681213 257.333437 
L 647.645104 257.490266 
L 648.608995 257.4084 
L 649.572886 257.079943 
L 650.536777 256.498097 
L 651.500668 255.657213 
L 652.464558 254.552834 
L 653.749746 252.665059 
L 655.034934 250.299124 
L 656.320122 247.454986 
L 657.60531 244.136763 
L 659.211795 239.335352 
L 660.818279 233.831864 
L 662.746061 226.351514 
L 664.673843 217.991345 
L 666.922921 207.258388 
L 669.493297 193.931396 
L 673.027564 174.338466 
L 681.381285 127.498022 
L 683.95166 114.51336 
L 686.200739 104.239132 
L 688.128521 96.423074 
L 689.735005 90.70718 
L 691.34149 85.786731 
L 692.626678 82.461543 
L 693.911866 79.70657 
L 695.197054 77.542262 
L 696.160945 76.316503 
L 697.124835 75.437271 
L 698.088726 74.908253 
L 698.73132 74.751293 
L 699.052617 74.731667 
L 699.052617 74.731667 
" clip-path="url(#p2c04de5f60)" style="fill: none; stroke: #44bf70; stroke-width: 1.5; stroke-linecap: square"/>
   </g>
   <g id="line2d_29">
    <path d="M 56.78 41.62 
L 57.422594 41.763902 
L 58.065188 42.195202 
L 58.707782 42.912688 
L 59.350376 43.914343 
L 60.314267 45.943269 
L 61.278157 48.592244 
L 62.242048 51.844566 
L 63.527236 57.083625 
L 64.812424 63.300043 
L 66.418909 72.338783 
L 68.025393 82.639925 
L 69.953175 96.417768 
L 72.523551 116.633341 
L 76.379114 149.139393 
L 80.877272 186.775396 
L 83.447647 206.497121 
L 85.696726 221.963342 
L 87.624508 233.575491 
L 89.230993 241.943621 
L 90.837477 249.033893 
L 92.122665 253.749002 
L 93.407853 257.596755 
L 94.371744 259.911055 
L 95.335635 261.738318 
L 96.299526 263.084883 
L 97.263417 263.960469 
L 97.906011 264.288817 
L 98.548604 264.418161 
L 99.191198 264.353707 
L 99.833792 264.101225 
L 100.476386 263.667026 
L 101.440277 262.690055 
L 102.404168 261.344682 
L 103.368059 259.658101 
L 104.653247 256.929151 
L 106.259731 252.850457 
L 108.187513 247.179046 
L 110.757889 238.750485 
L 116.862531 218.321266 
L 118.790313 212.70011 
L 120.396798 208.585112 
L 122.003282 205.084862 
L 123.28847 202.775363 
L 124.573658 200.931422 
L 125.537549 199.865078 
L 126.50144 199.07517 
L 127.465331 198.56326 
L 128.429221 198.328197 
L 129.393112 198.36618 
L 130.357003 198.670848 
L 131.320894 199.233379 
L 132.284785 200.042628 
L 133.569973 201.482081 
L 134.855161 203.299136 
L 136.461645 206.035974 
L 138.389427 209.878122 
L 140.638506 214.903604 
L 148.028336 231.904617 
L 149.956118 235.593836 
L 151.562602 238.21221 
L 152.84779 239.960956 
L 154.132978 241.373332 
L 155.418166 242.429545 
L 156.382057 242.979835 
L 157.345948 243.319256 
L 158.309838 243.446958 
L 159.273729 243.364231 
L 160.23762 243.074477 
L 161.201511 242.583146 
L 162.486699 241.627584 
L 163.771887 240.349832 
L 165.057075 238.778097 
L 166.663559 236.450832 
L 168.591341 233.224856 
L 171.161717 228.424886 
L 177.266359 216.771031 
L 179.194141 213.597717 
L 180.800625 211.311009 
L 182.40711 209.416178 
L 183.692298 208.216626 
L 184.977486 207.319975 
L 186.262674 206.740286 
L 187.226565 206.518675 
L 188.190455 206.481335 
L 189.154346 206.627619 
L 190.118237 206.955007 
L 191.403425 207.665436 
L 192.688613 208.674592 
L 193.973801 209.961867 
L 195.580285 211.92271 
L 197.508067 214.711719 
L 199.757146 218.413507 
L 204.255303 226.424457 
L 207.146976 231.314722 
L 209.074758 234.184942 
L 210.681242 236.23556 
L 212.287727 237.912715 
L 213.572915 238.952858 
L 214.858103 239.703932 
L 216.143291 240.152178 
L 217.107182 240.284479 
L 218.071072 240.240341 
L 219.034963 240.020218 
L 220.320151 239.457147 
L 221.605339 238.595768 
L 222.890527 237.451865 
L 224.497012 235.657107 
L 226.103496 233.50547 
L 228.031278 230.540008 
L 230.601654 226.13976 
L 236.706296 215.47052 
L 238.634078 212.579208 
L 240.240562 210.51123 
L 241.847047 208.82077 
L 243.132235 207.775616 
L 244.417423 207.026899 
L 245.702611 206.590571 
L 246.666502 206.474766 
L 247.630393 206.542824 
L 248.594283 206.795076 
L 249.558174 207.229955 
L 250.843362 208.087635 
L 252.12855 209.25029 
L 253.413738 210.698888 
L 255.020223 212.874033 
L 256.948004 215.939797 
L 259.197083 219.989332 
L 263.69524 228.735614 
L 266.586913 234.068788 
L 268.514695 237.187572 
L 270.121179 239.399948 
L 271.406367 240.865068 
L 272.691555 242.025022 
L 273.976743 242.85359 
L 274.940634 243.244939 
L 275.904525 243.431734 
L 276.868416 243.409541 
L 277.832306 243.176008 
L 278.796197 242.730911 
L 279.760088 242.076183 
L 281.045276 240.88451 
L 282.330464 239.343322 
L 283.615652 237.474868 
L 285.222136 234.723206 
L 287.149918 230.903498 
L 289.398997 225.916636 
L 297.431421 207.571649 
L 299.037906 204.60779 
L 300.64439 202.121405 
L 301.929578 200.535687 
L 303.214766 199.351454 
L 304.178657 198.746969 
L 305.142548 198.398647 
L 306.106439 198.315706 
L 307.07033 198.504927 
L 308.03422 198.970544 
L 308.998111 199.714154 
L 309.962002 200.73465 
L 310.925893 202.028176 
L 312.211081 204.165742 
L 313.496269 206.753259 
L 315.102753 210.57096 
L 316.709238 214.960679 
L 318.63702 220.842087 
L 321.528693 230.483438 
L 326.348147 246.676046 
L 328.275929 252.407056 
L 329.882414 256.552649 
L 331.167601 259.345851 
L 332.452789 261.593365 
L 333.41668 262.879171 
L 334.380571 263.792247 
L 335.023165 264.181637 
L 335.665759 264.387683 
L 336.308353 264.404207 
L 336.950947 264.225578 
L 337.59354 263.846734 
L 338.236134 263.26321 
L 339.200025 261.995906 
L 340.163916 260.249292 
L 341.127807 258.016459 
L 342.091698 255.29397 
L 343.376886 250.903026 
L 344.662074 245.652502 
L 345.947261 239.564183 
L 347.553746 230.82732 
L 349.160231 220.923549 
L 351.088013 207.663089 
L 353.337091 190.610464 
L 356.228764 166.909134 
L 363.939891 102.540688 
L 366.18897 85.95051 
L 368.116751 73.314854 
L 369.723236 64.142485 
L 371.329721 56.373988 
L 372.614909 51.261436 
L 373.900097 47.191204 
L 374.863988 44.850407 
L 375.827878 43.136558 
L 376.470472 42.347809 
L 377.113066 41.844817 
L 377.75566 41.628996 
L 378.398254 41.700953 
L 379.040848 42.060486 
L 379.683442 42.706584 
L 380.326036 43.637429 
L 381.289927 45.561661 
L 382.253818 48.108351 
L 383.217708 51.261436 
L 384.502896 56.373988 
L 385.788084 62.471806 
L 387.394569 71.375354 
L 389.001054 81.55789 
L 390.928835 95.21795 
L 393.499211 115.322155 
L 397.354774 147.76548 
L 402.174229 188.059894 
L 404.744605 207.663089 
L 406.672386 220.923549 
L 408.600168 232.671292 
L 410.206653 241.163184 
L 411.813138 248.38412 
L 413.098325 253.206858 
L 414.383513 257.163436 
L 415.347404 259.559281 
L 416.311295 261.46737 
L 417.275186 262.893466 
L 418.239077 263.846734 
L 418.881671 264.225578 
L 419.524265 264.404207 
L 420.166858 264.387683 
L 420.809452 264.181637 
L 421.452046 263.792247 
L 422.415937 262.879171 
L 423.379828 261.593365 
L 424.343719 259.961679 
L 425.628907 257.298132 
L 426.914095 254.144057 
L 428.520579 249.629533 
L 430.769658 242.524324 
L 435.267815 227.198887 
L 438.159488 217.828429 
L 440.08727 212.263369 
L 441.693755 208.206101 
L 443.300239 204.77154 
L 444.585427 202.51896 
L 445.870615 200.73465 
L 446.834506 199.714154 
L 447.798397 198.970544 
L 448.762288 198.504927 
L 449.726178 198.315706 
L 450.690069 198.398647 
L 451.65396 198.746969 
L 452.617851 199.351454 
L 453.581742 200.200583 
L 454.86693 201.689387 
L 456.152118 203.550747 
L 457.758602 206.334905 
L 459.686384 210.220716 
L 462.25676 216.029711 
L 468.682699 230.903498 
L 470.610481 234.723206 
L 472.216965 237.474868 
L 473.82345 239.76028 
L 475.108638 241.215921 
L 476.393826 242.31751 
L 477.357717 242.902709 
L 478.321608 243.277392 
L 479.285499 243.440348 
L 480.249389 243.392513 
L 481.21328 243.13694 
L 482.177171 242.678742 
L 483.462359 241.76517 
L 484.747547 240.526256 
L 486.032735 238.989553 
L 487.639219 236.699858 
L 489.567001 233.508631 
L 492.137377 228.735614 
L 498.563316 216.49142 
L 500.491098 213.353093 
L 502.097583 211.102966 
L 503.704067 209.25029 
L 504.989255 208.087635 
L 506.274443 207.229955 
L 507.559631 206.690584 
L 508.523522 206.499649 
L 509.487413 206.493009 
L 510.451303 206.669703 
L 511.415194 207.026899 
L 512.700382 207.775616 
L 513.98557 208.82077 
L 515.270758 210.141109 
L 516.877243 212.138275 
L 518.805024 214.962232 
L 521.054103 218.691211 
L 529.407824 233.037588 
L 531.335606 235.657107 
L 532.94209 237.451865 
L 534.227278 238.595768 
L 535.512466 239.457147 
L 536.797654 240.020218 
L 537.761545 240.240341 
L 538.725436 240.284479 
L 539.689326 240.152178 
L 540.653217 239.844801 
L 541.938405 239.168357 
L 543.223593 238.198896 
L 544.508781 236.954186 
L 546.115266 235.046464 
L 547.72175 232.799378 
L 549.970829 229.207778 
L 553.183799 223.550138 
L 557.360659 216.249969 
L 559.609738 212.804445 
L 561.216223 210.701995 
L 562.822707 208.971254 
L 564.107895 207.890436 
L 565.393083 207.103679 
L 566.678271 206.627619 
L 567.642162 206.481335 
L 568.606053 206.518675 
L 569.569943 206.740286 
L 570.533834 207.144916 
L 571.819022 207.963418 
L 573.10421 209.088877 
L 574.389398 210.502961 
L 575.995883 212.639728 
L 577.923664 215.667938 
L 580.172743 219.687462 
L 584.028307 227.173736 
L 587.241276 233.224856 
L 589.169058 236.450832 
L 590.775543 238.778097 
L 592.382027 240.698021 
L 593.667215 241.897665 
L 594.952403 242.768902 
L 595.916294 243.19377 
L 596.880185 243.41502 
L 597.844076 243.427879 
L 598.807967 243.229642 
L 599.771857 242.81973 
L 600.735748 242.199715 
L 602.020936 241.052968 
L 603.306124 239.554386 
L 604.591312 237.725404 
L 606.197797 235.017501 
L 608.125578 231.240313 
L 610.374657 226.286729 
L 618.728378 207.256512 
L 620.334863 204.336123 
L 621.941347 201.902522 
L 623.226535 200.36496 
L 624.190426 199.47633 
L 625.154317 198.83021 
L 626.118208 198.438491 
L 627.082099 198.310782 
L 628.04599 198.454278 
L 629.009881 198.873646 
L 629.973771 199.570927 
L 630.937662 200.545468 
L 631.901553 201.793875 
L 633.186741 203.873377 
L 634.471929 206.406223 
L 636.078414 210.161966 
L 637.684898 214.498661 
L 639.61268 220.330782 
L 642.504353 229.93312 
L 647.645104 247.179046 
L 649.572886 252.850457 
L 651.179371 256.929151 
L 652.464558 259.658101 
L 653.749746 261.832437 
L 654.713637 263.057928 
L 655.677528 263.906426 
L 656.320122 264.250587 
L 656.962716 264.409811 
L 657.60531 264.378053 
L 658.247904 264.149822 
L 658.890498 263.720202 
L 659.533091 263.084883 
L 660.496982 261.738318 
L 661.460873 259.911055 
L 662.424764 257.596755 
L 663.388655 254.792572 
L 664.673843 250.293383 
L 665.959031 244.936707 
L 667.565515 237.07149 
L 669.172 227.973949 
L 671.099782 215.569199 
L 673.348861 199.324883 
L 675.919236 178.951311 
L 680.096097 143.645101 
L 684.272957 108.850962 
L 686.843333 89.353844 
L 688.771115 76.317218 
L 690.377599 66.753564 
L 691.984084 58.548625 
L 693.269272 53.059317 
L 694.55446 48.592244 
L 695.518351 45.943269 
L 696.482242 43.914343 
L 697.446132 42.518279 
L 698.088726 41.943684 
L 698.73132 41.655982 
L 699.052617 41.62 
L 699.052617 41.62 
" clip-path="url(#p2c04de5f60)" style="fill: none; stroke: #bddf26; stroke-width: 1.5; stroke-linecap: square"/>
   </g>
   <g id="line2d_30">
    <path d="M 56.78 223.734166 
L 699.052617 223.734166 
" clip-path="url(#p2c04de5f60)" style="fill: none; stroke-dasharray: 0.6,0.99; stroke-dashoffset: 0; stroke: #000000; stroke-width: 0.6"/>
   </g>
   <g id="patch_3">
    <path d="M 56.78 275.56 
L 56.78 30.48 
" style="fill: none; stroke: #000000; stroke-width: 1.2; stroke-linejoin: miter; stroke-linecap: square"/>
   </g>
   <g id="patch_4">
    <path d="M 699.052617 275.56 
L 699.052617 30.48 
" style="fill: none; stroke: #000000; stroke-width: 1.2; stroke-linejoin: miter; stroke-linecap: square"/>
   </g>
   <g id="patch_5">
    <path d="M 56.78 275.56 
L 699.052617 275.56 
" style="fill: none; stroke: #000000; stroke-width: 1.2; stroke-linejoin: miter; stroke-linecap: square"/>
   </g>
   <g id="patch_6">
    <path d="M 56.78 30.48 
L 699.052617 30.48 
" style="fill: none; stroke: #000000; stroke-width: 1.2; stroke-linejoin: miter; stroke-linecap: square"/>
   </g>
   <g id="text_15">
    <!-- $11$ -->
    <g transform="translate(393.249438 33.342083) scale(0.11 -0.11)">
     <defs>
      <path id="DejaVuSans-31" d="M 794 531 
L 1825 531 
L 1825 4091 
L 703 3866 
L 703 4441 
L 1819 4666 
L 2450 4666 
L 2450 531 
L 3481 531 
L 3481 0 
L 794 0 
L 794 531 
z
" transform="scale(0.015625)"/>
     </defs>
     <use xlink:href="#DejaVuSans-31" transform="translate(0 0.09375)"/>
     <use xlink:href="#DejaVuSans-31" transform="translate(63.623047 0.09375)"/>
    </g>
   </g>
   <g id="text_16">
    <!-- DTFT of a discrete square pulse for different $N_1$ -->
    <g transform="translate(203.028309 24.48) scale(0.144 -0.144)">
     <defs>
      <path id="DejaVuSerif-44" d="M 1581 331 
L 2163 331 
Q 3072 331 3558 850 
Q 4044 1369 4044 2338 
Q 4044 3306 3559 3818 
Q 3075 4331 2163 4331 
L 1581 4331 
L 1581 331 
z
M 353 0 
L 353 331 
L 947 331 
L 947 4331 
L 353 4331 
L 353 4666 
L 2209 4666 
Q 3416 4666 4089 4050 
Q 4763 3434 4763 2338 
Q 4763 1238 4088 619 
Q 3413 0 2209 0 
L 353 0 
z
" transform="scale(0.015625)"/>
      <path id="DejaVuSerif-54" d="M 1222 0 
L 1222 331 
L 1819 331 
L 1819 4294 
L 447 4294 
L 447 3566 
L 63 3566 
L 63 4666 
L 4206 4666 
L 4206 3566 
L 3822 3566 
L 3822 4294 
L 2450 4294 
L 2450 331 
L 3047 331 
L 3047 0 
L 1222 0 
z
" transform="scale(0.015625)"/>
      <path id="DejaVuSerif-46" d="M 353 0 
L 353 331 
L 947 331 
L 947 4331 
L 353 4331 
L 353 4666 
L 4172 4666 
L 4172 3628 
L 3788 3628 
L 3788 4281 
L 1581 4281 
L 1581 2719 
L 3175 2719 
L 3175 3303 
L 3559 3303 
L 3559 1753 
L 3175 1753 
L 3175 2338 
L 1581 2338 
L 1581 331 
L 2328 331 
L 2328 0 
L 353 0 
z
" transform="scale(0.015625)"/>
      <path id="DejaVuSerif-6f" d="M 1925 219 
Q 2388 219 2623 584 
Q 2859 950 2859 1663 
Q 2859 2375 2623 2739 
Q 2388 3103 1925 3103 
Q 1463 3103 1227 2739 
Q 991 2375 991 1663 
Q 991 950 1228 584 
Q 1466 219 1925 219 
z
M 1925 -91 
Q 1200 -91 759 389 
Q 319 869 319 1663 
Q 319 2456 758 2934 
Q 1197 3413 1925 3413 
Q 2653 3413 3092 2934 
Q 3531 2456 3531 1663 
Q 3531 869 3092 389 
Q 2653 -91 1925 -91 
z
" transform="scale(0.015625)"/>
      <path id="DejaVuSerif-66" d="M 2753 4078 
L 2450 4078 
Q 2447 4313 2317 4434 
Q 2188 4556 1941 4556 
Q 1619 4556 1487 4379 
Q 1356 4203 1356 3750 
L 1356 3322 
L 2284 3322 
L 2284 2988 
L 1356 2988 
L 1356 331 
L 2094 331 
L 2094 0 
L 231 0 
L 231 331 
L 781 331 
L 781 2988 
L 231 2988 
L 231 3322 
L 781 3322 
L 781 3738 
Q 781 4294 1070 4578 
Q 1359 4863 1919 4863 
Q 2128 4863 2337 4825 
Q 2547 4788 2753 4709 
L 2753 4078 
z
" transform="scale(0.015625)"/>
      <path id="DejaVuSerif-69" d="M 622 4353 
Q 622 4497 726 4603 
Q 831 4709 978 4709 
Q 1122 4709 1226 4603 
Q 1331 4497 1331 4353 
Q 1331 4206 1228 4103 
Q 1125 4000 978 4000 
Q 831 4000 726 4103 
Q 622 4206 622 4353 
z
M 1356 331 
L 1900 331 
L 1900 0 
L 231 0 
L 231 331 
L 781 331 
L 781 2988 
L 231 2988 
L 231 3322 
L 1356 3322 
L 1356 331 
z
" transform="scale(0.015625)"/>
      <path id="DejaVuSerif-63" d="M 3291 997 
Q 3169 466 2822 187 
Q 2475 -91 1925 -91 
Q 1200 -91 759 389 
Q 319 869 319 1663 
Q 319 2459 759 2936 
Q 1200 3413 1925 3413 
Q 2241 3413 2553 3339 
Q 2866 3266 3181 3116 
L 3181 2266 
L 2847 2266 
Q 2781 2703 2561 2903 
Q 2341 3103 1931 3103 
Q 1466 3103 1228 2742 
Q 991 2381 991 1663 
Q 991 944 1227 581 
Q 1463 219 1931 219 
Q 2303 219 2525 412 
Q 2747 606 2828 997 
L 3291 997 
z
" transform="scale(0.015625)"/>
      <path id="DejaVuSerif-74" d="M 691 2988 
L 184 2988 
L 184 3322 
L 691 3322 
L 691 4353 
L 1269 4353 
L 1269 3322 
L 2350 3322 
L 2350 2988 
L 1269 2988 
L 1269 878 
Q 1269 456 1350 337 
Q 1431 219 1650 219 
Q 1875 219 1978 351 
Q 2081 484 2088 781 
L 2522 781 
Q 2497 328 2275 118 
Q 2053 -91 1600 -91 
Q 1103 -91 897 129 
Q 691 350 691 878 
L 691 2988 
z
" transform="scale(0.015625)"/>
      <path id="DejaVuSerif-71" d="M 3359 2988 
L 3359 -997 
L 3909 -997 
L 3909 -1331 
L 2241 -1331 
L 2241 -997 
L 2784 -997 
L 2784 519 
Q 2616 206 2355 57 
Q 2094 -91 1709 -91 
Q 1097 -91 708 395 
Q 319 881 319 1663 
Q 319 2444 706 2928 
Q 1094 3413 1709 3413 
Q 2094 3413 2355 3264 
Q 2616 3116 2784 2803 
L 2784 3322 
L 3909 3322 
L 3909 2988 
L 3359 2988 
z
M 2784 1825 
Q 2784 2422 2554 2737 
Q 2325 3053 1888 3053 
Q 1444 3053 1217 2703 
Q 991 2353 991 1663 
Q 991 975 1217 622 
Q 1444 269 1888 269 
Q 2325 269 2554 583 
Q 2784 897 2784 1497 
L 2784 1825 
z
" transform="scale(0.015625)"/>
      <path id="DejaVuSerif-75" d="M 2266 3322 
L 3341 3322 
L 3341 331 
L 3884 331 
L 3884 0 
L 2766 0 
L 2766 588 
Q 2606 256 2353 82 
Q 2100 -91 1766 -91 
Q 1213 -91 952 223 
Q 691 538 691 1209 
L 691 2988 
L 172 2988 
L 172 3322 
L 1269 3322 
L 1269 1388 
Q 1269 781 1417 556 
Q 1566 331 1947 331 
Q 2347 331 2556 625 
Q 2766 919 2766 1478 
L 2766 2988 
L 2266 2988 
L 2266 3322 
z
" transform="scale(0.015625)"/>
      <path id="DejaVuSerif-6e" d="M 263 0 
L 263 331 
L 781 331 
L 781 2988 
L 231 2988 
L 231 3322 
L 1356 3322 
L 1356 2731 
Q 1516 3069 1770 3241 
Q 2025 3413 2363 3413 
Q 2913 3413 3172 3097 
Q 3431 2781 3431 2113 
L 3431 331 
L 3944 331 
L 3944 0 
L 2356 0 
L 2356 331 
L 2853 331 
L 2853 1931 
Q 2853 2541 2703 2767 
Q 2553 2994 2175 2994 
Q 1775 2994 1565 2701 
Q 1356 2409 1356 1850 
L 1356 331 
L 1856 331 
L 1856 0 
L 263 0 
z
" transform="scale(0.015625)"/>
      <path id="DejaVuSans-Oblique-4e" d="M 1081 4666 
L 1931 4666 
L 3219 666 
L 4000 4666 
L 4616 4666 
L 3706 0 
L 2853 0 
L 1569 4025 
L 788 0 
L 172 0 
L 1081 4666 
z
" transform="scale(0.015625)"/>
     </defs>
     <use xlink:href="#DejaVuSerif-44" transform="translate(0 0.015625)"/>
     <use xlink:href="#DejaVuSerif-54" transform="translate(80.175781 0.015625)"/>
     <use xlink:href="#DejaVuSerif-46" transform="translate(146.875 0.015625)"/>
     <use xlink:href="#DejaVuSerif-54" transform="translate(216.259766 0.015625)"/>
     <use xlink:href="#DejaVuSerif-20" transform="translate(282.958984 0.015625)"/>
     <use xlink:href="#DejaVuSerif-6f" transform="translate(314.746094 0.015625)"/>
     <use xlink:href="#DejaVuSerif-66" transform="translate(374.951172 0.015625)"/>
     <use xlink:href="#DejaVuSerif-20" transform="translate(411.962891 0.015625)"/>
     <use xlink:href="#DejaVuSerif-61" transform="translate(443.75 0.015625)"/>
     <use xlink:href="#DejaVuSerif-20" transform="translate(503.369141 0.015625)"/>
     <use xlink:href="#DejaVuSerif-64" transform="translate(535.15625 0.015625)"/>
     <use xlink:href="#DejaVuSerif-69" transform="translate(599.169922 0.015625)"/>
     <use xlink:href="#DejaVuSerif-73" transform="translate(631.152344 0.015625)"/>
     <use xlink:href="#DejaVuSerif-63" transform="translate(682.470703 0.015625)"/>
     <use xlink:href="#DejaVuSerif-72" transform="translate(738.476562 0.015625)"/>
     <use xlink:href="#DejaVuSerif-65" transform="translate(786.279297 0.015625)"/>
     <use xlink:href="#DejaVuSerif-74" transform="translate(845.458984 0.015625)"/>
     <use xlink:href="#DejaVuSerif-65" transform="translate(885.644531 0.015625)"/>
     <use xlink:href="#DejaVuSerif-20" transform="translate(944.824219 0.015625)"/>
     <use xlink:href="#DejaVuSerif-73" transform="translate(976.611328 0.015625)"/>
     <use xlink:href="#DejaVuSerif-71" transform="translate(1027.929688 0.015625)"/>
     <use xlink:href="#DejaVuSerif-75" transform="translate(1091.943359 0.015625)"/>
     <use xlink:href="#DejaVuSerif-61" transform="translate(1156.347656 0.015625)"/>
     <use xlink:href="#DejaVuSerif-72" transform="translate(1215.966797 0.015625)"/>
     <use xlink:href="#DejaVuSerif-65" transform="translate(1263.769531 0.015625)"/>
     <use xlink:href="#DejaVuSerif-20" transform="translate(1322.949219 0.015625)"/>
     <use xlink:href="#DejaVuSerif-70" transform="translate(1354.736328 0.015625)"/>
     <use xlink:href="#DejaVuSerif-75" transform="translate(1418.75 0.015625)"/>
     <use xlink:href="#DejaVuSerif-6c" transform="translate(1483.154297 0.015625)"/>
     <use xlink:href="#DejaVuSerif-73" transform="translate(1515.136719 0.015625)"/>
     <use xlink:href="#DejaVuSerif-65" transform="translate(1566.455078 0.015625)"/>
     <use xlink:href="#DejaVuSerif-20" transform="translate(1625.634766 0.015625)"/>
     <use xlink:href="#DejaVuSerif-66" transform="translate(1657.421875 0.015625)"/>
     <use xlink:href="#DejaVuSerif-6f" transform="translate(1694.433594 0.015625)"/>
     <use xlink:href="#DejaVuSerif-72" transform="translate(1754.638672 0.015625)"/>
     <use xlink:href="#DejaVuSerif-20" transform="translate(1802.441406 0.015625)"/>
     <use xlink:href="#DejaVuSerif-64" transform="translate(1834.228516 0.015625)"/>
     <use xlink:href="#DejaVuSerif-69" transform="translate(1898.242188 0.015625)"/>
     <use xlink:href="#DejaVuSerif-66" transform="translate(1930.224609 0.015625)"/>
     <use xlink:href="#DejaVuSerif-66" transform="translate(1967.236328 0.015625)"/>
     <use xlink:href="#DejaVuSerif-65" transform="translate(2004.248047 0.015625)"/>
     <use xlink:href="#DejaVuSerif-72" transform="translate(2063.427734 0.015625)"/>
     <use xlink:href="#DejaVuSerif-65" transform="translate(2111.230469 0.015625)"/>
     <use xlink:href="#DejaVuSerif-6e" transform="translate(2170.410156 0.015625)"/>
     <use xlink:href="#DejaVuSerif-74" transform="translate(2234.814453 0.015625)"/>
     <use xlink:href="#DejaVuSerif-20" transform="translate(2275 0.015625)"/>
     <use xlink:href="#DejaVuSans-Oblique-4e" transform="translate(2306.787109 0.015625)"/>
     <use xlink:href="#DejaVuSans-31" transform="translate(2381.591797 -16.390625) scale(0.7)"/>
    </g>
   </g>
   <g id="legend_1">
    <g id="patch_7">
     <path d="M 615.172617 128.14875 
L 690.652617 128.14875 
Q 693.052617 128.14875 693.052617 125.74875 
L 693.052617 38.88 
Q 693.052617 36.48 690.652617 36.48 
L 615.172617 36.48 
Q 612.772617 36.48 612.772617 38.88 
L 612.772617 125.74875 
Q 612.772617 128.14875 615.172617 128.14875 
z
" style="fill: #ffffff; opacity: 0.7; stroke: #cccccc; stroke-linejoin: miter"/>
    </g>
    <g id="line2d_31">
     <path d="M 617.572617 46.198125 
L 629.572617 46.198125 
L 641.572617 46.198125 
" style="fill: none; stroke: #482475; stroke-width: 1.5; stroke-linecap: square"/>
    </g>
    <g id="text_17">
     <!-- $N_1 = 1$ -->
     <g transform="translate(651.172617 50.398125) scale(0.12 -0.12)">
      <defs>
       <path id="DejaVuSans-3d" d="M 678 2906 
L 4684 2906 
L 4684 2381 
L 678 2381 
L 678 2906 
z
M 678 1631 
L 4684 1631 
L 4684 1100 
L 678 1100 
L 678 1631 
z
" transform="scale(0.015625)"/>
      </defs>
      <use xlink:href="#DejaVuSans-Oblique-4e" transform="translate(0 0.09375)"/>
      <use xlink:href="#DejaVuSans-31" transform="translate(74.804688 -16.3125) scale(0.7)"/>
      <use xlink:href="#DejaVuSans-3d" transform="translate(141.557617 0.09375)"/>
      <use xlink:href="#DejaVuSans-31" transform="translate(244.829102 0.09375)"/>
     </g>
    </g>
    <g id="line2d_32">
     <path d="M 617.572617 63.811875 
L 629.572617 63.811875 
L 641.572617 63.811875 
" style="fill: none; stroke: #355f8d; stroke-width: 1.5; stroke-linecap: square"/>
    </g>
    <g id="text_18">
     <!-- $N_1 = 2$ -->
     <g transform="translate(651.172617 68.011875) scale(0.12 -0.12)">
      <use xlink:href="#DejaVuSans-Oblique-4e" transform="translate(0 0.78125)"/>
      <use xlink:href="#DejaVuSans-31" transform="translate(74.804688 -15.625) scale(0.7)"/>
      <use xlink:href="#DejaVuSans-3d" transform="translate(141.557617 0.78125)"/>
      <use xlink:href="#DejaVuSans-32" transform="translate(244.829102 0.78125)"/>
     </g>
    </g>
    <g id="line2d_33">
     <path d="M 617.572617 81.425625 
L 629.572617 81.425625 
L 641.572617 81.425625 
" style="fill: none; stroke: #21918c; stroke-width: 1.5; stroke-linecap: square"/>
    </g>
    <g id="text_19">
     <!-- $N_1 = 3$ -->
     <g transform="translate(651.172617 85.625625) scale(0.12 -0.12)">
      <defs>
       <path id="DejaVuSans-33" d="M 2597 2516 
Q 3050 2419 3304 2112 
Q 3559 1806 3559 1356 
Q 3559 666 3084 287 
Q 2609 -91 1734 -91 
Q 1441 -91 1130 -33 
Q 819 25 488 141 
L 488 750 
Q 750 597 1062 519 
Q 1375 441 1716 441 
Q 2309 441 2620 675 
Q 2931 909 2931 1356 
Q 2931 1769 2642 2001 
Q 2353 2234 1838 2234 
L 1294 2234 
L 1294 2753 
L 1863 2753 
Q 2328 2753 2575 2939 
Q 2822 3125 2822 3475 
Q 2822 3834 2567 4026 
Q 2313 4219 1838 4219 
Q 1578 4219 1281 4162 
Q 984 4106 628 3988 
L 628 4550 
Q 988 4650 1302 4700 
Q 1616 4750 1894 4750 
Q 2613 4750 3031 4423 
Q 3450 4097 3450 3541 
Q 3450 3153 3228 2886 
Q 3006 2619 2597 2516 
z
" transform="scale(0.015625)"/>
      </defs>
      <use xlink:href="#DejaVuSans-Oblique-4e" transform="translate(0 0.78125)"/>
      <use xlink:href="#DejaVuSans-31" transform="translate(74.804688 -15.625) scale(0.7)"/>
      <use xlink:href="#DejaVuSans-3d" transform="translate(141.557617 0.78125)"/>
      <use xlink:href="#DejaVuSans-33" transform="translate(244.829102 0.78125)"/>
     </g>
    </g>
    <g id="line2d_34">
     <path d="M 617.572617 99.039375 
L 629.572617 99.039375 
L 641.572617 99.039375 
" style="fill: none; stroke: #44bf70; stroke-width: 1.5; stroke-linecap: square"/>
    </g>
    <g id="text_20">
     <!-- $N_1 = 4$ -->
     <g transform="translate(651.172617 103.239375) scale(0.12 -0.12)">
      <defs>
       <path id="DejaVuSans-34" d="M 2419 4116 
L 825 1625 
L 2419 1625 
L 2419 4116 
z
M 2253 4666 
L 3047 4666 
L 3047 1625 
L 3713 1625 
L 3713 1100 
L 3047 1100 
L 3047 0 
L 2419 0 
L 2419 1100 
L 313 1100 
L 313 1709 
L 2253 4666 
z
" transform="scale(0.015625)"/>
      </defs>
      <use xlink:href="#DejaVuSans-Oblique-4e" transform="translate(0 0.09375)"/>
      <use xlink:href="#DejaVuSans-31" transform="translate(74.804688 -16.3125) scale(0.7)"/>
      <use xlink:href="#DejaVuSans-3d" transform="translate(141.557617 0.09375)"/>
      <use xlink:href="#DejaVuSans-34" transform="translate(244.829102 0.09375)"/>
     </g>
    </g>
    <g id="line2d_35">
     <path d="M 617.572617 116.653125 
L 629.572617 116.653125 
L 641.572617 116.653125 
" style="fill: none; stroke: #bddf26; stroke-width: 1.5; stroke-linecap: square"/>
    </g>
    <g id="text_21">
     <!-- $N_1 = 5$ -->
     <g transform="translate(651.172617 120.853125) scale(0.12 -0.12)">
      <defs>
       <path id="DejaVuSans-35" d="M 691 4666 
L 3169 4666 
L 3169 4134 
L 1269 4134 
L 1269 2991 
Q 1406 3038 1543 3061 
Q 1681 3084 1819 3084 
Q 2600 3084 3056 2656 
Q 3513 2228 3513 1497 
Q 3513 744 3044 326 
Q 2575 -91 1722 -91 
Q 1428 -91 1123 -41 
Q 819 9 494 109 
L 494 744 
Q 775 591 1075 516 
Q 1375 441 1709 441 
Q 2250 441 2565 725 
Q 2881 1009 2881 1497 
Q 2881 1984 2565 2268 
Q 2250 2553 1709 2553 
Q 1456 2553 1204 2497 
Q 953 2441 691 2322 
L 691 4666 
z
" transform="scale(0.015625)"/>
      </defs>
      <use xlink:href="#DejaVuSans-Oblique-4e" transform="translate(0 0.09375)"/>
      <use xlink:href="#DejaVuSans-31" transform="translate(74.804688 -16.3125) scale(0.7)"/>
      <use xlink:href="#DejaVuSans-3d" transform="translate(141.557617 0.09375)"/>
      <use xlink:href="#DejaVuSans-35" transform="translate(244.829102 0.09375)"/>
     </g>
    </g>
   </g>
  </g>
 </g>
 <defs>
  <clipPath id="p2c04de5f60">
   <rect x="56.78" y="30.48" width="642.272617" height="245.08"/>
  </clipPath>
 </defs>
</svg>
