<?xml version="1.0" encoding="utf-8" standalone="no"?>
<!DOCTYPE svg PUBLIC "-//W3C//DTD SVG 1.1//EN"
  "http://www.w3.org/Graphics/SVG/1.1/DTD/svg11.dtd">
<svg xmlns:xlink="http://www.w3.org/1999/xlink" width="576pt" height="288pt" viewBox="0 0 576 288" xmlns="http://www.w3.org/2000/svg" version="1.1">
 <metadata>
  <rdf:RDF xmlns:dc="http://purl.org/dc/elements/1.1/" xmlns:cc="http://creativecommons.org/ns#" xmlns:rdf="http://www.w3.org/1999/02/22-rdf-syntax-ns#">
   <cc:Work>
    <dc:type rdf:resource="http://purl.org/dc/dcmitype/StillImage"/>
    <dc:date>2026-05-11T14:55:05.496861</dc:date>
    <dc:format>image/svg+xml</dc:format>
    <dc:creator>
     <cc:Agent>
      <dc:title>Matplotlib v3.10.7, https://matplotlib.org/</dc:title>
     </cc:Agent>
    </dc:creator>
   </cc:Work>
  </rdf:RDF>
 </metadata>
 <defs>
  <style type="text/css">*{stroke-linejoin: round; stroke-linecap: butt}</style>
 </defs>
 <g id="figure_1">
  <g id="patch_1">
   <path d="M 0 288 
L 576 288 
L 576 0 
L 0 0 
z
" style="fill: #ffffff"/>
  </g>
  <g id="axes_1">
   <g id="patch_2">
    <path d="M 56.78 239.56 
L 555.052617 239.56 
L 555.052617 30.96 
L 56.78 30.96 
z
" style="fill: #ffffff"/>
   </g>
   <g id="matplotlib.axis_1">
    <g id="xtick_1">
     <g id="line2d_1">
      <path d="M 56.78 239.56 
L 56.78 30.96 
" clip-path="url(#p1402bf1213)" style="fill: none; stroke-dasharray: 0.8,1.32; stroke-dashoffset: 0; stroke: #b0b0b0; stroke-opacity: 0.6; stroke-width: 0.8"/>
     </g>
     <g id="line2d_2">
      <defs>
       <path id="mdafe3fe420" d="M 0 0 
L 0 3.5 
" style="stroke: #000000; stroke-width: 0.8"/>
      </defs>
      <g>
       <use xlink:href="#mdafe3fe420" x="56.78" y="239.56" style="stroke: #000000; stroke-width: 0.8"/>
      </g>
     </g>
     <g id="text_1">
      <!-- $-2\pi$ -->
      <g transform="translate(44.3 255.678125) scale(0.12 -0.12)">
       <defs>
        <path id="DejaVuSans-2212" d="M 678 2272 
L 4684 2272 
L 4684 1741 
L 678 1741 
L 678 2272 
z
" transform="scale(0.015625)"/>
        <path id="DejaVuSans-32" d="M 1228 531 
L 3431 531 
L 3431 0 
L 469 0 
L 469 531 
Q 828 903 1448 1529 
Q 2069 2156 2228 2338 
Q 2531 2678 2651 2914 
Q 2772 3150 2772 3378 
Q 2772 3750 2511 3984 
Q 2250 4219 1831 4219 
Q 1534 4219 1204 4116 
Q 875 4013 500 3803 
L 500 4441 
Q 881 4594 1212 4672 
Q 1544 4750 1819 4750 
Q 2544 4750 2975 4387 
Q 3406 4025 3406 3419 
Q 3406 3131 3298 2873 
Q 3191 2616 2906 2266 
Q 2828 2175 2409 1742 
Q 1991 1309 1228 531 
z
" transform="scale(0.015625)"/>
        <path id="DejaVuSans-Oblique-3c0" d="M 584 3500 
L 3938 3500 
L 3825 2925 
L 3384 2925 
L 2966 775 
Q 2922 550 2981 450 
Q 3038 353 3209 353 
Q 3256 353 3325 363 
Q 3397 369 3419 372 
L 3338 -44 
Q 3222 -84 3103 -103 
Q 2981 -122 2866 -122 
Q 2491 -122 2388 81 
Q 2284 288 2391 838 
L 2797 2925 
L 1506 2925 
L 938 0 
L 350 0 
L 919 2925 
L 472 2925 
L 584 3500 
z
" transform="scale(0.015625)"/>
       </defs>
       <use xlink:href="#DejaVuSans-2212" transform="translate(0 0.78125)"/>
       <use xlink:href="#DejaVuSans-32" transform="translate(83.789062 0.78125)"/>
       <use xlink:href="#DejaVuSans-Oblique-3c0" transform="translate(147.412109 0.78125)"/>
      </g>
     </g>
    </g>
    <g id="xtick_2">
     <g id="line2d_3">
      <path d="M 181.348154 239.56 
L 181.348154 30.96 
" clip-path="url(#p1402bf1213)" style="fill: none; stroke-dasharray: 0.8,1.32; stroke-dashoffset: 0; stroke: #b0b0b0; stroke-opacity: 0.6; stroke-width: 0.8"/>
     </g>
     <g id="line2d_4">
      <g>
       <use xlink:href="#mdafe3fe420" x="181.348154" y="239.56" style="stroke: #000000; stroke-width: 0.8"/>
      </g>
     </g>
     <g id="text_2">
      <!-- $-\pi$ -->
      <g transform="translate(172.708154 255.678125) scale(0.12 -0.12)">
       <use xlink:href="#DejaVuSans-2212" transform="translate(0 0.3125)"/>
       <use xlink:href="#DejaVuSans-Oblique-3c0" transform="translate(83.789062 0.3125)"/>
      </g>
     </g>
    </g>
    <g id="xtick_3">
     <g id="line2d_5">
      <path d="M 305.916309 239.56 
L 305.916309 30.96 
" clip-path="url(#p1402bf1213)" style="fill: none; stroke-dasharray: 0.8,1.32; stroke-dashoffset: 0; stroke: #b0b0b0; stroke-opacity: 0.6; stroke-width: 0.8"/>
     </g>
     <g id="line2d_6">
      <g>
       <use xlink:href="#mdafe3fe420" x="305.916309" y="239.56" style="stroke: #000000; stroke-width: 0.8"/>
      </g>
     </g>
     <g id="text_3">
      <!-- 0 -->
      <g transform="translate(302.098809 255.678125) scale(0.12 -0.12)">
       <defs>
        <path id="DejaVuSerif-30" d="M 2034 219 
Q 2513 219 2750 744 
Q 2988 1269 2988 2328 
Q 2988 3391 2750 3916 
Q 2513 4441 2034 4441 
Q 1556 4441 1318 3916 
Q 1081 3391 1081 2328 
Q 1081 1269 1318 744 
Q 1556 219 2034 219 
z
M 2034 -91 
Q 1275 -91 848 546 
Q 422 1184 422 2328 
Q 422 3475 848 4112 
Q 1275 4750 2034 4750 
Q 2797 4750 3222 4112 
Q 3647 3475 3647 2328 
Q 3647 1184 3222 546 
Q 2797 -91 2034 -91 
z
" transform="scale(0.015625)"/>
       </defs>
       <use xlink:href="#DejaVuSerif-30"/>
      </g>
     </g>
    </g>
    <g id="xtick_4">
     <g id="line2d_7">
      <path d="M 430.484463 239.56 
L 430.484463 30.96 
" clip-path="url(#p1402bf1213)" style="fill: none; stroke-dasharray: 0.8,1.32; stroke-dashoffset: 0; stroke: #b0b0b0; stroke-opacity: 0.6; stroke-width: 0.8"/>
     </g>
     <g id="line2d_8">
      <g>
       <use xlink:href="#mdafe3fe420" x="430.484463" y="239.56" style="stroke: #000000; stroke-width: 0.8"/>
      </g>
     </g>
     <g id="text_4">
      <!-- $\pi$ -->
      <g transform="translate(426.824463 255.678125) scale(0.12 -0.12)">
       <use xlink:href="#DejaVuSans-Oblique-3c0" transform="translate(0 0.3125)"/>
      </g>
     </g>
    </g>
    <g id="xtick_5">
     <g id="line2d_9">
      <path d="M 555.052617 239.56 
L 555.052617 30.96 
" clip-path="url(#p1402bf1213)" style="fill: none; stroke-dasharray: 0.8,1.32; stroke-dashoffset: 0; stroke: #b0b0b0; stroke-opacity: 0.6; stroke-width: 0.8"/>
     </g>
     <g id="line2d_10">
      <g>
       <use xlink:href="#mdafe3fe420" x="555.052617" y="239.56" style="stroke: #000000; stroke-width: 0.8"/>
      </g>
     </g>
     <g id="text_5">
      <!-- $2\pi$ -->
      <g transform="translate(547.612617 255.678125) scale(0.12 -0.12)">
       <use xlink:href="#DejaVuSans-32" transform="translate(0 0.78125)"/>
       <use xlink:href="#DejaVuSans-Oblique-3c0" transform="translate(63.623047 0.78125)"/>
      </g>
     </g>
    </g>
    <g id="text_6">
     <!-- $\omega$ (rad/sample) -->
     <g transform="translate(260.316309 271.29375) scale(0.12 -0.12)">
      <defs>
       <path id="DejaVuSans-Oblique-3c9" d="M 1369 -91 
Q 72 -91 434 1766 
Q 575 2500 1256 3500 
L 1875 3500 
Q 1231 2500 1088 1750 
Q 819 397 1519 397 
Q 2166 397 2478 2078 
L 3009 2078 
Q 2669 388 3316 397 
Q 4013 403 4275 1750 
Q 4419 2500 4169 3500 
L 4788 3500 
Q 5075 2500 4934 1766 
Q 4578 -94 3278 -91 
Q 2428 -88 2503 844 
Q 2194 -91 1369 -91 
z
" transform="scale(0.015625)"/>
       <path id="DejaVuSerif-20" transform="scale(0.015625)"/>
       <path id="DejaVuSerif-28" d="M 2041 -997 
Q 1281 -656 893 83 
Q 506 822 506 1931 
Q 506 3044 893 3783 
Q 1281 4522 2041 4863 
L 2041 4556 
Q 1559 4225 1350 3623 
Q 1141 3022 1141 1931 
Q 1141 844 1350 242 
Q 1559 -359 2041 -691 
L 2041 -997 
z
" transform="scale(0.015625)"/>
       <path id="DejaVuSerif-72" d="M 3059 3328 
L 3059 2497 
L 2728 2497 
Q 2713 2744 2591 2866 
Q 2469 2988 2234 2988 
Q 1809 2988 1582 2694 
Q 1356 2400 1356 1850 
L 1356 331 
L 2022 331 
L 2022 0 
L 263 0 
L 263 331 
L 781 331 
L 781 2994 
L 231 2994 
L 231 3322 
L 1356 3322 
L 1356 2731 
Q 1525 3078 1790 3245 
Q 2056 3413 2438 3413 
Q 2578 3413 2733 3391 
Q 2888 3369 3059 3328 
z
" transform="scale(0.015625)"/>
       <path id="DejaVuSerif-61" d="M 2547 1044 
L 2547 1747 
L 1806 1747 
Q 1378 1747 1168 1562 
Q 959 1378 959 997 
Q 959 650 1171 447 
Q 1384 244 1747 244 
Q 2106 244 2326 466 
Q 2547 688 2547 1044 
z
M 3122 2075 
L 3122 331 
L 3634 331 
L 3634 0 
L 2547 0 
L 2547 359 
Q 2356 128 2106 18 
Q 1856 -91 1522 -91 
Q 969 -91 644 203 
Q 319 497 319 997 
Q 319 1513 691 1797 
Q 1063 2081 1741 2081 
L 2547 2081 
L 2547 2309 
Q 2547 2688 2317 2895 
Q 2088 3103 1672 3103 
Q 1328 3103 1125 2947 
Q 922 2791 872 2484 
L 575 2484 
L 575 3156 
Q 875 3284 1158 3348 
Q 1441 3413 1709 3413 
Q 2400 3413 2761 3070 
Q 3122 2728 3122 2075 
z
" transform="scale(0.015625)"/>
       <path id="DejaVuSerif-64" d="M 3359 331 
L 3909 331 
L 3909 0 
L 2784 0 
L 2784 519 
Q 2616 206 2355 57 
Q 2094 -91 1709 -91 
Q 1097 -91 708 395 
Q 319 881 319 1663 
Q 319 2444 706 2928 
Q 1094 3413 1709 3413 
Q 2094 3413 2355 3264 
Q 2616 3116 2784 2803 
L 2784 4531 
L 2241 4531 
L 2241 4863 
L 3359 4863 
L 3359 331 
z
M 2784 1497 
L 2784 1825 
Q 2784 2422 2554 2737 
Q 2325 3053 1888 3053 
Q 1444 3053 1217 2703 
Q 991 2353 991 1663 
Q 991 975 1217 622 
Q 1444 269 1888 269 
Q 2325 269 2554 583 
Q 2784 897 2784 1497 
z
" transform="scale(0.015625)"/>
       <path id="DejaVuSerif-2f" d="M 1656 4666 
L 2156 4666 
L 500 -594 
L 0 -594 
L 1656 4666 
z
" transform="scale(0.015625)"/>
       <path id="DejaVuSerif-73" d="M 359 184 
L 359 959 
L 691 959 
Q 703 588 923 403 
Q 1144 219 1575 219 
Q 1963 219 2166 364 
Q 2369 509 2369 788 
Q 2369 1006 2220 1140 
Q 2072 1275 1594 1428 
L 1178 1569 
Q 750 1706 558 1912 
Q 366 2119 366 2438 
Q 366 2894 700 3153 
Q 1034 3413 1625 3413 
Q 1888 3413 2178 3344 
Q 2469 3275 2778 3144 
L 2778 2419 
L 2447 2419 
Q 2434 2741 2221 2922 
Q 2009 3103 1644 3103 
Q 1281 3103 1095 2975 
Q 909 2847 909 2591 
Q 909 2381 1050 2254 
Q 1191 2128 1613 1997 
L 2069 1856 
Q 2541 1709 2748 1489 
Q 2956 1269 2956 922 
Q 2956 450 2595 179 
Q 2234 -91 1600 -91 
Q 1278 -91 972 -22 
Q 666 47 359 184 
z
" transform="scale(0.015625)"/>
       <path id="DejaVuSerif-6d" d="M 3316 2675 
Q 3481 3041 3739 3227 
Q 3997 3413 4341 3413 
Q 4863 3413 5119 3089 
Q 5375 2766 5375 2113 
L 5375 331 
L 5894 331 
L 5894 0 
L 4300 0 
L 4300 331 
L 4800 331 
L 4800 2047 
Q 4800 2556 4650 2772 
Q 4500 2988 4153 2988 
Q 3769 2988 3567 2697 
Q 3366 2406 3366 1850 
L 3366 331 
L 3866 331 
L 3866 0 
L 2291 0 
L 2291 331 
L 2791 331 
L 2791 2069 
Q 2791 2566 2641 2777 
Q 2491 2988 2144 2988 
Q 1759 2988 1557 2697 
Q 1356 2406 1356 1850 
L 1356 331 
L 1856 331 
L 1856 0 
L 263 0 
L 263 331 
L 781 331 
L 781 2994 
L 231 2994 
L 231 3322 
L 1356 3322 
L 1356 2731 
Q 1516 3063 1762 3238 
Q 2009 3413 2322 3413 
Q 2709 3413 2968 3220 
Q 3228 3028 3316 2675 
z
" transform="scale(0.015625)"/>
       <path id="DejaVuSerif-70" d="M 1313 1825 
L 1313 1497 
Q 1313 897 1542 583 
Q 1772 269 2209 269 
Q 2650 269 2876 622 
Q 3103 975 3103 1663 
Q 3103 2353 2876 2703 
Q 2650 3053 2209 3053 
Q 1772 3053 1542 2737 
Q 1313 2422 1313 1825 
z
M 738 2988 
L 184 2988 
L 184 3322 
L 1313 3322 
L 1313 2803 
Q 1481 3116 1742 3264 
Q 2003 3413 2388 3413 
Q 3000 3413 3387 2928 
Q 3775 2444 3775 1663 
Q 3775 881 3387 395 
Q 3000 -91 2388 -91 
Q 2003 -91 1742 57 
Q 1481 206 1313 519 
L 1313 -997 
L 1856 -997 
L 1856 -1331 
L 184 -1331 
L 184 -997 
L 738 -997 
L 738 2988 
z
" transform="scale(0.015625)"/>
       <path id="DejaVuSerif-6c" d="M 1313 331 
L 1856 331 
L 1856 0 
L 184 0 
L 184 331 
L 738 331 
L 738 4531 
L 184 4531 
L 184 4863 
L 1313 4863 
L 1313 331 
z
" transform="scale(0.015625)"/>
       <path id="DejaVuSerif-65" d="M 3469 1600 
L 991 1600 
L 991 1575 
Q 991 903 1244 561 
Q 1497 219 1991 219 
Q 2369 219 2611 417 
Q 2853 616 2950 1006 
L 3413 1006 
Q 3275 459 2904 184 
Q 2534 -91 1931 -91 
Q 1203 -91 761 389 
Q 319 869 319 1663 
Q 319 2450 753 2931 
Q 1188 3413 1894 3413 
Q 2647 3413 3050 2948 
Q 3453 2484 3469 1600 
z
M 2791 1931 
Q 2772 2513 2545 2808 
Q 2319 3103 1894 3103 
Q 1497 3103 1269 2806 
Q 1041 2509 991 1931 
L 2791 1931 
z
" transform="scale(0.015625)"/>
       <path id="DejaVuSerif-29" d="M 453 -997 
L 453 -691 
Q 934 -359 1145 242 
Q 1356 844 1356 1931 
Q 1356 3022 1145 3623 
Q 934 4225 453 4556 
L 453 4863 
Q 1216 4522 1603 3783 
Q 1991 3044 1991 1931 
Q 1991 822 1603 83 
Q 1216 -656 453 -997 
z
" transform="scale(0.015625)"/>
      </defs>
      <use xlink:href="#DejaVuSans-Oblique-3c9" transform="translate(0 0.015625)"/>
      <use xlink:href="#DejaVuSerif-20" transform="translate(83.740234 0.015625)"/>
      <use xlink:href="#DejaVuSerif-28" transform="translate(115.527344 0.015625)"/>
      <use xlink:href="#DejaVuSerif-72" transform="translate(154.541016 0.015625)"/>
      <use xlink:href="#DejaVuSerif-61" transform="translate(202.34375 0.015625)"/>
      <use xlink:href="#DejaVuSerif-64" transform="translate(261.962891 0.015625)"/>
      <use xlink:href="#DejaVuSerif-2f" transform="translate(325.976562 0.015625)"/>
      <use xlink:href="#DejaVuSerif-73" transform="translate(359.667969 0.015625)"/>
      <use xlink:href="#DejaVuSerif-61" transform="translate(410.986328 0.015625)"/>
      <use xlink:href="#DejaVuSerif-6d" transform="translate(470.605469 0.015625)"/>
      <use xlink:href="#DejaVuSerif-70" transform="translate(565.429688 0.015625)"/>
      <use xlink:href="#DejaVuSerif-6c" transform="translate(629.443359 0.015625)"/>
      <use xlink:href="#DejaVuSerif-65" transform="translate(661.425781 0.015625)"/>
      <use xlink:href="#DejaVuSerif-29" transform="translate(720.605469 0.015625)"/>
     </g>
    </g>
   </g>
   <g id="matplotlib.axis_2">
    <g id="ytick_1">
     <g id="line2d_11">
      <path d="M 56.78 223.631424 
L 555.052617 223.631424 
" clip-path="url(#p1402bf1213)" style="fill: none; stroke-dasharray: 0.8,1.32; stroke-dashoffset: 0; stroke: #b0b0b0; stroke-opacity: 0.6; stroke-width: 0.8"/>
     </g>
     <g id="line2d_12">
      <defs>
       <path id="m617c1d9009" d="M 0 0 
L -3.5 0 
" style="stroke: #000000; stroke-width: 0.8"/>
      </defs>
      <g>
       <use xlink:href="#m617c1d9009" x="56.78" y="223.631424" style="stroke: #000000; stroke-width: 0.8"/>
      </g>
     </g>
     <g id="text_7">
      <!-- −2 -->
      <g transform="translate(32.089375 228.190487) scale(0.12 -0.12)">
       <defs>
        <path id="DejaVuSerif-2212" d="M 678 2259 
L 4684 2259 
L 4684 1753 
L 678 1753 
L 678 2259 
z
" transform="scale(0.015625)"/>
        <path id="DejaVuSerif-32" d="M 819 3553 
L 469 3553 
L 469 4384 
Q 803 4563 1142 4656 
Q 1481 4750 1806 4750 
Q 2534 4750 2956 4397 
Q 3378 4044 3378 3438 
Q 3378 2753 2422 1800 
Q 2347 1728 2309 1691 
L 1131 513 
L 3078 513 
L 3078 1088 
L 3444 1088 
L 3444 0 
L 434 0 
L 434 341 
L 1850 1753 
Q 2319 2222 2519 2614 
Q 2719 3006 2719 3438 
Q 2719 3909 2473 4175 
Q 2228 4441 1797 4441 
Q 1350 4441 1106 4219 
Q 863 3997 819 3553 
z
" transform="scale(0.015625)"/>
       </defs>
       <use xlink:href="#DejaVuSerif-2212"/>
       <use xlink:href="#DejaVuSerif-32" transform="translate(83.789062 0)"/>
      </g>
     </g>
    </g>
    <g id="ytick_2">
     <g id="line2d_13">
      <path d="M 56.78 195.448408 
L 555.052617 195.448408 
" clip-path="url(#p1402bf1213)" style="fill: none; stroke-dasharray: 0.8,1.32; stroke-dashoffset: 0; stroke: #b0b0b0; stroke-opacity: 0.6; stroke-width: 0.8"/>
     </g>
     <g id="line2d_14">
      <g>
       <use xlink:href="#m617c1d9009" x="56.78" y="195.448408" style="stroke: #000000; stroke-width: 0.8"/>
      </g>
     </g>
     <g id="text_8">
      <!-- 0 -->
      <g transform="translate(42.145 200.00747) scale(0.12 -0.12)">
       <use xlink:href="#DejaVuSerif-30"/>
      </g>
     </g>
    </g>
    <g id="ytick_3">
     <g id="line2d_15">
      <path d="M 56.78 167.265392 
L 555.052617 167.265392 
" clip-path="url(#p1402bf1213)" style="fill: none; stroke-dasharray: 0.8,1.32; stroke-dashoffset: 0; stroke: #b0b0b0; stroke-opacity: 0.6; stroke-width: 0.8"/>
     </g>
     <g id="line2d_16">
      <g>
       <use xlink:href="#m617c1d9009" x="56.78" y="167.265392" style="stroke: #000000; stroke-width: 0.8"/>
      </g>
     </g>
     <g id="text_9">
      <!-- 2 -->
      <g transform="translate(42.145 171.824454) scale(0.12 -0.12)">
       <use xlink:href="#DejaVuSerif-32"/>
      </g>
     </g>
    </g>
    <g id="ytick_4">
     <g id="line2d_17">
      <path d="M 56.78 139.082375 
L 555.052617 139.082375 
" clip-path="url(#p1402bf1213)" style="fill: none; stroke-dasharray: 0.8,1.32; stroke-dashoffset: 0; stroke: #b0b0b0; stroke-opacity: 0.6; stroke-width: 0.8"/>
     </g>
     <g id="line2d_18">
      <g>
       <use xlink:href="#m617c1d9009" x="56.78" y="139.082375" style="stroke: #000000; stroke-width: 0.8"/>
      </g>
     </g>
     <g id="text_10">
      <!-- 4 -->
      <g transform="translate(42.145 143.641438) scale(0.12 -0.12)">
       <defs>
        <path id="DejaVuSerif-34" d="M 2234 1581 
L 2234 4063 
L 641 1581 
L 2234 1581 
z
M 3609 0 
L 1484 0 
L 1484 331 
L 2234 331 
L 2234 1247 
L 197 1247 
L 197 1588 
L 2241 4750 
L 2859 4750 
L 2859 1581 
L 3750 1581 
L 3750 1247 
L 2859 1247 
L 2859 331 
L 3609 331 
L 3609 0 
z
" transform="scale(0.015625)"/>
       </defs>
       <use xlink:href="#DejaVuSerif-34"/>
      </g>
     </g>
    </g>
    <g id="ytick_5">
     <g id="line2d_19">
      <path d="M 56.78 110.899359 
L 555.052617 110.899359 
" clip-path="url(#p1402bf1213)" style="fill: none; stroke-dasharray: 0.8,1.32; stroke-dashoffset: 0; stroke: #b0b0b0; stroke-opacity: 0.6; stroke-width: 0.8"/>
     </g>
     <g id="line2d_20">
      <g>
       <use xlink:href="#m617c1d9009" x="56.78" y="110.899359" style="stroke: #000000; stroke-width: 0.8"/>
      </g>
     </g>
     <g id="text_11">
      <!-- 6 -->
      <g transform="translate(42.145 115.458421) scale(0.12 -0.12)">
       <defs>
        <path id="DejaVuSerif-36" d="M 2094 219 
Q 2534 219 2771 542 
Q 3009 866 3009 1472 
Q 3009 2078 2771 2401 
Q 2534 2725 2094 2725 
Q 1647 2725 1412 2412 
Q 1178 2100 1178 1509 
Q 1178 888 1415 553 
Q 1653 219 2094 219 
z
M 1075 2569 
Q 1288 2803 1556 2918 
Q 1825 3034 2163 3034 
Q 2859 3034 3264 2615 
Q 3669 2197 3669 1472 
Q 3669 763 3233 336 
Q 2797 -91 2069 -91 
Q 1278 -91 853 498 
Q 428 1088 428 2181 
Q 428 3406 931 4078 
Q 1434 4750 2350 4750 
Q 2597 4750 2869 4703 
Q 3141 4656 3425 4563 
L 3425 3794 
L 3072 3794 
Q 3034 4109 2831 4275 
Q 2628 4441 2284 4441 
Q 1678 4441 1381 3981 
Q 1084 3522 1075 2569 
z
" transform="scale(0.015625)"/>
       </defs>
       <use xlink:href="#DejaVuSerif-36"/>
      </g>
     </g>
    </g>
    <g id="ytick_6">
     <g id="line2d_21">
      <path d="M 56.78 82.716343 
L 555.052617 82.716343 
" clip-path="url(#p1402bf1213)" style="fill: none; stroke-dasharray: 0.8,1.32; stroke-dashoffset: 0; stroke: #b0b0b0; stroke-opacity: 0.6; stroke-width: 0.8"/>
     </g>
     <g id="line2d_22">
      <g>
       <use xlink:href="#m617c1d9009" x="56.78" y="82.716343" style="stroke: #000000; stroke-width: 0.8"/>
      </g>
     </g>
     <g id="text_12">
      <!-- 8 -->
      <g transform="translate(42.145 87.275405) scale(0.12 -0.12)">
       <defs>
        <path id="DejaVuSerif-38" d="M 2981 1275 
Q 2981 1775 2732 2051 
Q 2484 2328 2034 2328 
Q 1584 2328 1336 2051 
Q 1088 1775 1088 1275 
Q 1088 772 1336 495 
Q 1584 219 2034 219 
Q 2484 219 2732 495 
Q 2981 772 2981 1275 
z
M 2853 3541 
Q 2853 3966 2637 4203 
Q 2422 4441 2034 4441 
Q 1650 4441 1433 4203 
Q 1216 3966 1216 3541 
Q 1216 3113 1433 2875 
Q 1650 2638 2034 2638 
Q 2422 2638 2637 2875 
Q 2853 3113 2853 3541 
z
M 2516 2484 
Q 3047 2413 3344 2092 
Q 3641 1772 3641 1275 
Q 3641 619 3225 264 
Q 2809 -91 2034 -91 
Q 1263 -91 845 264 
Q 428 619 428 1275 
Q 428 1772 725 2092 
Q 1022 2413 1556 2484 
Q 1084 2569 832 2842 
Q 581 3116 581 3541 
Q 581 4103 968 4426 
Q 1356 4750 2034 4750 
Q 2713 4750 3100 4426 
Q 3488 4103 3488 3541 
Q 3488 3116 3236 2842 
Q 2984 2569 2516 2484 
z
" transform="scale(0.015625)"/>
       </defs>
       <use xlink:href="#DejaVuSerif-38"/>
      </g>
     </g>
    </g>
    <g id="ytick_7">
     <g id="line2d_23">
      <path d="M 56.78 54.533326 
L 555.052617 54.533326 
" clip-path="url(#p1402bf1213)" style="fill: none; stroke-dasharray: 0.8,1.32; stroke-dashoffset: 0; stroke: #b0b0b0; stroke-opacity: 0.6; stroke-width: 0.8"/>
     </g>
     <g id="line2d_24">
      <g>
       <use xlink:href="#m617c1d9009" x="56.78" y="54.533326" style="stroke: #000000; stroke-width: 0.8"/>
      </g>
     </g>
     <g id="text_13">
      <!-- 10 -->
      <g transform="translate(34.51 59.092389) scale(0.12 -0.12)">
       <defs>
        <path id="DejaVuSerif-31" d="M 909 0 
L 909 331 
L 1722 331 
L 1722 4213 
L 781 3603 
L 781 4013 
L 1919 4750 
L 2350 4750 
L 2350 331 
L 3163 331 
L 3163 0 
L 909 0 
z
" transform="scale(0.015625)"/>
       </defs>
       <use xlink:href="#DejaVuSerif-31"/>
       <use xlink:href="#DejaVuSerif-30" transform="translate(63.623047 0)"/>
      </g>
     </g>
    </g>
    <g id="text_14">
     <!-- $X(e^{j\omega})$ -->
     <g transform="translate(25.59375 152.9) rotate(-90) scale(0.12 -0.12)">
      <defs>
       <path id="DejaVuSans-Oblique-58" d="M 878 4666 
L 1516 4666 
L 2316 2981 
L 3763 4666 
L 4500 4666 
L 2578 2438 
L 3738 0 
L 3103 0 
L 2163 1966 
L 459 0 
L -275 0 
L 1906 2509 
L 878 4666 
z
" transform="scale(0.015625)"/>
       <path id="DejaVuSans-28" d="M 1984 4856 
Q 1566 4138 1362 3434 
Q 1159 2731 1159 2009 
Q 1159 1288 1364 580 
Q 1569 -128 1984 -844 
L 1484 -844 
Q 1016 -109 783 600 
Q 550 1309 550 2009 
Q 550 2706 781 3412 
Q 1013 4119 1484 4856 
L 1984 4856 
z
" transform="scale(0.015625)"/>
       <path id="DejaVuSans-Oblique-65" d="M 3078 2063 
Q 3088 2113 3092 2166 
Q 3097 2219 3097 2272 
Q 3097 2653 2873 2875 
Q 2650 3097 2266 3097 
Q 1838 3097 1509 2826 
Q 1181 2556 1013 2059 
L 3078 2063 
z
M 3578 1613 
L 903 1613 
Q 884 1494 878 1425 
Q 872 1356 872 1306 
Q 872 872 1139 634 
Q 1406 397 1894 397 
Q 2269 397 2603 481 
Q 2938 566 3225 728 
L 3116 159 
Q 2806 34 2476 -28 
Q 2147 -91 1806 -91 
Q 1078 -91 686 257 
Q 294 606 294 1247 
Q 294 1794 489 2264 
Q 684 2734 1063 3103 
Q 1306 3334 1642 3459 
Q 1978 3584 2356 3584 
Q 2950 3584 3301 3228 
Q 3653 2872 3653 2272 
Q 3653 2128 3634 1964 
Q 3616 1800 3578 1613 
z
" transform="scale(0.015625)"/>
       <path id="DejaVuSans-Oblique-6a" d="M 928 3500 
L 1503 3500 
L 813 -63 
L 809 -78 
Q 694 -675 544 -897 
Q 403 -1106 132 -1218 
Q -138 -1331 -506 -1331 
L -722 -1331 
L -628 -844 
L -481 -844 
Q -144 -844 -1 -703 
Q 141 -563 238 -63 
L 928 3500 
z
M 1197 4863 
L 1772 4863 
L 1631 4134 
L 1056 4134 
L 1197 4863 
z
" transform="scale(0.015625)"/>
       <path id="DejaVuSans-29" d="M 513 4856 
L 1013 4856 
Q 1481 4119 1714 3412 
Q 1947 2706 1947 2009 
Q 1947 1309 1714 600 
Q 1481 -109 1013 -844 
L 513 -844 
Q 928 -128 1133 580 
Q 1338 1288 1338 2009 
Q 1338 2731 1133 3434 
Q 928 4138 513 4856 
z
" transform="scale(0.015625)"/>
      </defs>
      <use xlink:href="#DejaVuSans-Oblique-58" transform="translate(0 0.529687)"/>
      <use xlink:href="#DejaVuSans-28" transform="translate(68.505859 0.529687)"/>
      <use xlink:href="#DejaVuSans-Oblique-65" transform="translate(107.519531 0.529687)"/>
      <use xlink:href="#DejaVuSans-Oblique-6a" transform="translate(173.692865 38.810937) scale(0.7)"/>
      <use xlink:href="#DejaVuSans-Oblique-3c9" transform="translate(193.141107 38.810937) scale(0.7)"/>
      <use xlink:href="#DejaVuSans-29" transform="translate(254.493646 0.529687)"/>
     </g>
    </g>
   </g>
   <g id="line2d_25">
    <path d="M 56.78 40.441818 
L 57.278522 40.5643 
L 57.777044 40.931402 
L 58.275566 41.542091 
L 59.023348 42.910908 
L 59.771131 44.815126 
L 60.768175 48.165676 
L 61.765219 52.408793 
L 63.011523 58.894801 
L 64.257828 66.58813 
L 65.753394 77.225504 
L 67.49822 91.238728 
L 69.99083 113.359566 
L 76.970136 176.734998 
L 78.964224 192.162163 
L 80.70905 203.824858 
L 82.204616 212.243193 
L 83.45092 218.054303 
L 84.697225 222.725739 
L 85.694269 225.630026 
L 86.691313 227.795667 
L 87.439096 228.941796 
L 88.186878 229.687052 
L 88.934661 230.042478 
L 89.433183 230.069509 
L 89.931705 229.933986 
L 90.679488 229.437287 
L 91.427271 228.605738 
L 92.175053 227.460623 
L 93.172097 225.486282 
L 94.418402 222.383354 
L 95.913967 217.894475 
L 97.658794 211.892667 
L 104.887361 186.056764 
L 106.382927 181.914404 
L 107.629232 179.047571 
L 108.875536 176.773915 
L 109.87258 175.408748 
L 110.869624 174.459888 
L 111.617407 174.024175 
L 112.365189 173.824101 
L 113.112972 173.856431 
L 113.860755 174.115748 
L 114.608538 174.594547 
L 115.605582 175.557693 
L 116.602625 176.86639 
L 117.84893 178.937751 
L 119.344496 181.963133 
L 121.089322 186.052862 
L 124.080454 193.768442 
L 126.822324 200.675589 
L 128.56715 204.547855 
L 130.062716 207.35706 
L 131.309021 209.25985 
L 132.306065 210.461996 
L 133.303108 211.360992 
L 134.300152 211.945687 
L 135.047935 212.174507 
L 135.795718 212.223287 
L 136.543501 212.093728 
L 137.540544 211.649836 
L 138.537588 210.908282 
L 139.534632 209.887204 
L 140.780936 208.253059 
L 142.276502 205.83982 
L 144.021329 202.54101 
L 146.763199 196.7662 
L 150.003591 190.003847 
L 151.748418 186.820763 
L 153.243983 184.523669 
L 154.490288 182.983061 
L 155.736593 181.825961 
L 156.733637 181.19648 
L 157.73068 180.840899 
L 158.727724 180.763649 
L 159.724768 180.964069 
L 160.721812 181.436452 
L 161.718855 182.17018 
L 162.96516 183.431119 
L 164.211465 185.036746 
L 165.70703 187.348995 
L 167.701118 190.919725 
L 174.680424 203.96063 
L 176.17599 206.088978 
L 177.422295 207.516489 
L 178.668599 208.58523 
L 179.665643 209.160985 
L 180.662687 209.476792 
L 181.65973 209.526866 
L 182.656774 209.310292 
L 183.653818 208.831034 
L 184.650862 208.09787 
L 185.897166 206.845253 
L 187.143471 205.25309 
L 188.639037 202.959172 
L 190.633124 199.408842 
L 197.861692 185.953859 
L 199.357257 183.878669 
L 200.603562 182.509726 
L 201.600606 181.681696 
L 202.597649 181.109807 
L 203.594693 180.806465 
L 204.591737 180.779238 
L 205.588781 181.030691 
L 206.585824 181.558301 
L 207.582868 182.354468 
L 208.579912 183.406611 
L 209.826217 185.054849 
L 211.321782 187.462057 
L 213.066609 190.741341 
L 215.559218 195.960286 
L 219.298132 203.76795 
L 221.042959 206.899283 
L 222.538524 209.11707 
L 223.784829 210.557005 
L 224.781873 211.40577 
L 225.778917 211.963091 
L 226.77596 212.214006 
L 227.523743 212.195116 
L 228.271526 211.996344 
L 229.26857 211.451433 
L 230.265614 210.591233 
L 231.262657 209.426175 
L 232.508962 207.566273 
L 233.755267 205.299259 
L 235.250832 202.121329 
L 237.24492 197.306019 
L 243.476443 181.691671 
L 244.972009 178.710672 
L 246.218314 176.68498 
L 247.215357 175.417784 
L 248.212401 174.499885 
L 248.960184 174.057059 
L 249.707967 173.835107 
L 250.45575 173.841192 
L 251.203532 174.080375 
L 251.951315 174.555518 
L 252.699098 175.267219 
L 253.696142 176.580824 
L 254.693186 178.301077 
L 255.93949 180.995098 
L 257.185795 184.244536 
L 258.681361 188.779353 
L 260.675448 195.653446 
L 267.405494 219.853357 
L 268.901059 224.016399 
L 270.147364 226.777644 
L 271.144408 228.436058 
L 271.89219 229.321399 
L 272.639973 229.875299 
L 273.387756 230.078182 
L 273.886278 230.009763 
L 274.3848 229.773024 
L 275.132583 229.093579 
L 275.880365 228.014913 
L 276.628148 226.528281 
L 277.625192 223.901753 
L 278.622236 220.534109 
L 279.61928 216.429232 
L 280.865584 210.283127 
L 282.111889 203.055248 
L 283.607455 193.056149 
L 285.352281 179.777293 
L 287.59563 160.681571 
L 290.836022 130.787612 
L 294.574936 96.579612 
L 296.569023 80.096427 
L 298.31385 67.418913 
L 299.809416 58.189846 
L 301.05572 51.831119 
L 302.052764 47.697179 
L 303.049808 44.461045 
L 303.797591 42.645316 
L 304.545373 41.366664 
L 305.043895 40.816738 
L 305.542417 40.510721 
L 306.040939 40.449475 
L 306.539461 40.633171 
L 307.037983 41.061293 
L 307.536505 41.732637 
L 308.284288 43.191381 
L 309.03207 45.183752 
L 310.029114 48.648133 
L 311.026158 52.999685 
L 312.272463 59.611846 
L 313.518767 67.418913 
L 315.014333 78.17376 
L 316.759159 92.294501 
L 319.251769 114.508271 
L 325.732553 173.631263 
L 327.726641 189.427519 
L 329.471467 201.48575 
L 330.967033 210.283127 
L 332.213338 216.429232 
L 333.459642 221.445453 
L 334.456686 224.627803 
L 335.45373 227.069578 
L 336.201513 228.419424 
L 336.949296 229.363906 
L 337.697078 229.912699 
L 338.1956 230.064739 
L 338.694122 230.050675 
L 339.192644 229.875299 
L 339.940427 229.321399 
L 340.68821 228.436058 
L 341.435992 227.240885 
L 342.433036 225.206104 
L 343.679341 222.038557 
L 345.174906 217.489266 
L 347.168994 210.53307 
L 353.400517 187.980849 
L 354.896083 183.553265 
L 356.142388 180.409966 
L 357.388693 177.833749 
L 358.385736 176.213759 
L 359.38278 175.003759 
L 360.130563 174.370835 
L 360.878346 173.974525 
L 361.626128 173.81347 
L 362.373911 173.884065 
L 363.121694 174.180539 
L 363.869477 174.695047 
L 364.866521 175.703008 
L 365.863564 177.052692 
L 367.109869 179.168981 
L 368.605435 182.237739 
L 370.350261 186.361987 
L 373.839914 195.389787 
L 376.332524 201.550589 
L 378.07735 205.299259 
L 379.572916 207.972405 
L 380.819221 209.745233 
L 381.816265 210.83537 
L 382.813308 211.617499 
L 383.810352 212.082638 
L 384.558135 212.221338 
L 385.305918 212.180623 
L 386.053701 211.963091 
L 387.050744 211.40577 
L 388.047788 210.557005 
L 389.044832 209.436765 
L 390.291136 207.692506 
L 391.786702 205.171085 
L 393.78079 201.27153 
L 400.760096 187.03179 
L 402.255662 184.697354 
L 403.501966 183.120448 
L 404.748271 181.923486 
L 405.745315 181.260333 
L 406.742358 180.870168 
L 407.739402 180.758058 
L 408.736446 180.923979 
L 409.73349 181.362848 
L 410.730533 182.064652 
L 411.727577 183.014655 
L 412.973882 184.521607 
L 414.469448 186.736245 
L 416.214274 189.757463 
L 418.956144 195.045585 
L 422.196537 201.241205 
L 423.941363 204.153426 
L 425.436929 206.246784 
L 426.683234 207.640096 
L 427.929538 208.6711 
L 428.926582 209.214842 
L 429.923626 209.497649 
L 430.92067 209.514342 
L 431.917713 209.264616 
L 432.914757 208.753042 
L 433.911801 207.988992 
L 435.158105 206.700636 
L 436.40441 205.076877 
L 437.899976 202.751789 
L 439.894063 199.173419 
L 446.624109 186.536821 
L 448.119674 184.356067 
L 449.365979 182.882946 
L 450.612284 181.771498 
L 451.609327 181.166816 
L 452.606371 180.82939 
L 453.603415 180.767405 
L 454.600459 180.984056 
L 455.597503 181.477459 
L 456.594546 182.240643 
L 457.59159 183.261643 
L 458.837895 184.87443 
L 460.33346 187.245574 
L 462.078287 190.493692 
L 464.570896 195.692018 
L 468.30981 203.526415 
L 470.054637 206.693213 
L 471.550203 208.95156 
L 472.796507 210.43136 
L 473.793551 211.315249 
L 474.790595 211.909926 
L 475.787639 212.19978 
L 476.535421 212.210725 
L 477.283204 212.041995 
L 478.030987 211.693098 
L 479.028031 210.95022 
L 480.025075 209.897895 
L 481.022118 208.550144 
L 482.268423 206.480426 
L 483.763989 203.499719 
L 485.508815 199.476945 
L 488.250686 192.463555 
L 491.491078 184.24054 
L 493.235904 180.38458 
L 494.73147 177.640253 
L 495.977775 175.853669 
L 496.974818 174.801335 
L 497.971862 174.115748 
L 498.719645 173.856431 
L 499.467428 173.824101 
L 500.215211 174.024175 
L 500.962993 174.459888 
L 501.710776 175.132218 
L 502.70782 176.394096 
L 503.704864 178.064351 
L 504.951168 180.699718 
L 506.197473 183.896421 
L 507.693039 188.37813 
L 509.687126 195.202964 
L 513.42604 209.15577 
L 515.669389 217.079896 
L 517.164954 221.687997 
L 518.411259 224.918905 
L 519.408303 227.013188 
L 520.405347 228.605738 
L 521.153129 229.437287 
L 521.900912 229.933986 
L 522.399434 230.069509 
L 522.897956 230.042478 
L 523.396478 229.848219 
L 524.144261 229.234266 
L 524.892044 228.22282 
L 525.639826 226.80467 
L 526.387609 224.97345 
L 527.384653 221.88379 
L 528.381697 218.054303 
L 529.628001 212.243193 
L 530.874306 205.333388 
L 532.369872 195.683882 
L 534.114698 182.754401 
L 536.108786 166.172355 
L 538.850656 141.292564 
L 544.085136 93.356656 
L 546.079223 77.225504 
L 547.82405 64.958984 
L 549.319616 56.148733 
L 550.56592 50.1784 
L 551.562964 46.376248 
L 552.560008 43.486684 
L 553.307791 41.93827 
L 554.055573 40.931402 
L 554.554095 40.5643 
L 555.052617 40.441818 
L 555.052617 40.441818 
" clip-path="url(#p1402bf1213)" style="fill: none; stroke: #d62728; stroke-width: 1.8; stroke-linecap: square"/>
   </g>
   <g id="line2d_26">
    <path d="M 56.78 195.448408 
L 555.052617 195.448408 
" clip-path="url(#p1402bf1213)" style="fill: none; stroke-dasharray: 0.6,0.99; stroke-dashoffset: 0; stroke: #000000; stroke-width: 0.6"/>
   </g>
   <g id="patch_3">
    <path d="M 56.78 239.56 
L 56.78 30.96 
" style="fill: none; stroke: #000000; stroke-width: 1.2; stroke-linejoin: miter; stroke-linecap: square"/>
   </g>
   <g id="patch_4">
    <path d="M 555.052617 239.56 
L 555.052617 30.96 
" style="fill: none; stroke: #000000; stroke-width: 1.2; stroke-linejoin: miter; stroke-linecap: square"/>
   </g>
   <g id="patch_5">
    <path d="M 56.78 239.56 
L 555.052617 239.56 
" style="fill: none; stroke: #000000; stroke-width: 1.2; stroke-linejoin: miter; stroke-linecap: square"/>
   </g>
   <g id="patch_6">
    <path d="M 56.78 30.96 
L 555.052617 30.96 
" style="fill: none; stroke: #000000; stroke-width: 1.2; stroke-linejoin: miter; stroke-linecap: square"/>
   </g>
   <g id="text_15">
    <!-- 11 -->
    <g transform="translate(317.811691 33.396064) scale(0.1 -0.1)">
     <use xlink:href="#DejaVuSerif-31"/>
     <use xlink:href="#DejaVuSerif-31" transform="translate(63.623047 0)"/>
    </g>
   </g>
   <g id="text_16">
    <!-- DTFT of rectangular pulse ($N_1 = 5$) -->
    <g transform="translate(179.196309 24.96) scale(0.144 -0.144)">
     <defs>
      <path id="DejaVuSerif-44" d="M 1581 331 
L 2163 331 
Q 3072 331 3558 850 
Q 4044 1369 4044 2338 
Q 4044 3306 3559 3818 
Q 3075 4331 2163 4331 
L 1581 4331 
L 1581 331 
z
M 353 0 
L 353 331 
L 947 331 
L 947 4331 
L 353 4331 
L 353 4666 
L 2209 4666 
Q 3416 4666 4089 4050 
Q 4763 3434 4763 2338 
Q 4763 1238 4088 619 
Q 3413 0 2209 0 
L 353 0 
z
" transform="scale(0.015625)"/>
      <path id="DejaVuSerif-54" d="M 1222 0 
L 1222 331 
L 1819 331 
L 1819 4294 
L 447 4294 
L 447 3566 
L 63 3566 
L 63 4666 
L 4206 4666 
L 4206 3566 
L 3822 3566 
L 3822 4294 
L 2450 4294 
L 2450 331 
L 3047 331 
L 3047 0 
L 1222 0 
z
" transform="scale(0.015625)"/>
      <path id="DejaVuSerif-46" d="M 353 0 
L 353 331 
L 947 331 
L 947 4331 
L 353 4331 
L 353 4666 
L 4172 4666 
L 4172 3628 
L 3788 3628 
L 3788 4281 
L 1581 4281 
L 1581 2719 
L 3175 2719 
L 3175 3303 
L 3559 3303 
L 3559 1753 
L 3175 1753 
L 3175 2338 
L 1581 2338 
L 1581 331 
L 2328 331 
L 2328 0 
L 353 0 
z
" transform="scale(0.015625)"/>
      <path id="DejaVuSerif-6f" d="M 1925 219 
Q 2388 219 2623 584 
Q 2859 950 2859 1663 
Q 2859 2375 2623 2739 
Q 2388 3103 1925 3103 
Q 1463 3103 1227 2739 
Q 991 2375 991 1663 
Q 991 950 1228 584 
Q 1466 219 1925 219 
z
M 1925 -91 
Q 1200 -91 759 389 
Q 319 869 319 1663 
Q 319 2456 758 2934 
Q 1197 3413 1925 3413 
Q 2653 3413 3092 2934 
Q 3531 2456 3531 1663 
Q 3531 869 3092 389 
Q 2653 -91 1925 -91 
z
" transform="scale(0.015625)"/>
      <path id="DejaVuSerif-66" d="M 2753 4078 
L 2450 4078 
Q 2447 4313 2317 4434 
Q 2188 4556 1941 4556 
Q 1619 4556 1487 4379 
Q 1356 4203 1356 3750 
L 1356 3322 
L 2284 3322 
L 2284 2988 
L 1356 2988 
L 1356 331 
L 2094 331 
L 2094 0 
L 231 0 
L 231 331 
L 781 331 
L 781 2988 
L 231 2988 
L 231 3322 
L 781 3322 
L 781 3738 
Q 781 4294 1070 4578 
Q 1359 4863 1919 4863 
Q 2128 4863 2337 4825 
Q 2547 4788 2753 4709 
L 2753 4078 
z
" transform="scale(0.015625)"/>
      <path id="DejaVuSerif-63" d="M 3291 997 
Q 3169 466 2822 187 
Q 2475 -91 1925 -91 
Q 1200 -91 759 389 
Q 319 869 319 1663 
Q 319 2459 759 2936 
Q 1200 3413 1925 3413 
Q 2241 3413 2553 3339 
Q 2866 3266 3181 3116 
L 3181 2266 
L 2847 2266 
Q 2781 2703 2561 2903 
Q 2341 3103 1931 3103 
Q 1466 3103 1228 2742 
Q 991 2381 991 1663 
Q 991 944 1227 581 
Q 1463 219 1931 219 
Q 2303 219 2525 412 
Q 2747 606 2828 997 
L 3291 997 
z
" transform="scale(0.015625)"/>
      <path id="DejaVuSerif-74" d="M 691 2988 
L 184 2988 
L 184 3322 
L 691 3322 
L 691 4353 
L 1269 4353 
L 1269 3322 
L 2350 3322 
L 2350 2988 
L 1269 2988 
L 1269 878 
Q 1269 456 1350 337 
Q 1431 219 1650 219 
Q 1875 219 1978 351 
Q 2081 484 2088 781 
L 2522 781 
Q 2497 328 2275 118 
Q 2053 -91 1600 -91 
Q 1103 -91 897 129 
Q 691 350 691 878 
L 691 2988 
z
" transform="scale(0.015625)"/>
      <path id="DejaVuSerif-6e" d="M 263 0 
L 263 331 
L 781 331 
L 781 2988 
L 231 2988 
L 231 3322 
L 1356 3322 
L 1356 2731 
Q 1516 3069 1770 3241 
Q 2025 3413 2363 3413 
Q 2913 3413 3172 3097 
Q 3431 2781 3431 2113 
L 3431 331 
L 3944 331 
L 3944 0 
L 2356 0 
L 2356 331 
L 2853 331 
L 2853 1931 
Q 2853 2541 2703 2767 
Q 2553 2994 2175 2994 
Q 1775 2994 1565 2701 
Q 1356 2409 1356 1850 
L 1356 331 
L 1856 331 
L 1856 0 
L 263 0 
z
" transform="scale(0.015625)"/>
      <path id="DejaVuSerif-67" d="M 3359 2988 
L 3359 72 
Q 3359 -644 2965 -1033 
Q 2572 -1422 1844 -1422 
Q 1516 -1422 1216 -1362 
Q 916 -1303 641 -1184 
L 641 -488 
L 941 -488 
Q 997 -813 1206 -963 
Q 1416 -1113 1806 -1113 
Q 2313 -1113 2548 -827 
Q 2784 -541 2784 72 
L 2784 519 
Q 2616 206 2355 57 
Q 2094 -91 1709 -91 
Q 1097 -91 708 395 
Q 319 881 319 1663 
Q 319 2444 706 2928 
Q 1094 3413 1709 3413 
Q 2094 3413 2355 3264 
Q 2616 3116 2784 2803 
L 2784 3322 
L 3909 3322 
L 3909 2988 
L 3359 2988 
z
M 2784 1825 
Q 2784 2422 2554 2737 
Q 2325 3053 1888 3053 
Q 1444 3053 1217 2703 
Q 991 2353 991 1663 
Q 991 975 1217 622 
Q 1444 269 1888 269 
Q 2325 269 2554 583 
Q 2784 897 2784 1497 
L 2784 1825 
z
" transform="scale(0.015625)"/>
      <path id="DejaVuSerif-75" d="M 2266 3322 
L 3341 3322 
L 3341 331 
L 3884 331 
L 3884 0 
L 2766 0 
L 2766 588 
Q 2606 256 2353 82 
Q 2100 -91 1766 -91 
Q 1213 -91 952 223 
Q 691 538 691 1209 
L 691 2988 
L 172 2988 
L 172 3322 
L 1269 3322 
L 1269 1388 
Q 1269 781 1417 556 
Q 1566 331 1947 331 
Q 2347 331 2556 625 
Q 2766 919 2766 1478 
L 2766 2988 
L 2266 2988 
L 2266 3322 
z
" transform="scale(0.015625)"/>
      <path id="DejaVuSans-Oblique-4e" d="M 1081 4666 
L 1931 4666 
L 3219 666 
L 4000 4666 
L 4616 4666 
L 3706 0 
L 2853 0 
L 1569 4025 
L 788 0 
L 172 0 
L 1081 4666 
z
" transform="scale(0.015625)"/>
      <path id="DejaVuSans-31" d="M 794 531 
L 1825 531 
L 1825 4091 
L 703 3866 
L 703 4441 
L 1819 4666 
L 2450 4666 
L 2450 531 
L 3481 531 
L 3481 0 
L 794 0 
L 794 531 
z
" transform="scale(0.015625)"/>
      <path id="DejaVuSans-3d" d="M 678 2906 
L 4684 2906 
L 4684 2381 
L 678 2381 
L 678 2906 
z
M 678 1631 
L 4684 1631 
L 4684 1100 
L 678 1100 
L 678 1631 
z
" transform="scale(0.015625)"/>
      <path id="DejaVuSans-35" d="M 691 4666 
L 3169 4666 
L 3169 4134 
L 1269 4134 
L 1269 2991 
Q 1406 3038 1543 3061 
Q 1681 3084 1819 3084 
Q 2600 3084 3056 2656 
Q 3513 2228 3513 1497 
Q 3513 744 3044 326 
Q 2575 -91 1722 -91 
Q 1428 -91 1123 -41 
Q 819 9 494 109 
L 494 744 
Q 775 591 1075 516 
Q 1375 441 1709 441 
Q 2250 441 2565 725 
Q 2881 1009 2881 1497 
Q 2881 1984 2565 2268 
Q 2250 2553 1709 2553 
Q 1456 2553 1204 2497 
Q 953 2441 691 2322 
L 691 4666 
z
" transform="scale(0.015625)"/>
     </defs>
     <use xlink:href="#DejaVuSerif-44" transform="translate(0 0.015625)"/>
     <use xlink:href="#DejaVuSerif-54" transform="translate(80.175781 0.015625)"/>
     <use xlink:href="#DejaVuSerif-46" transform="translate(146.875 0.015625)"/>
     <use xlink:href="#DejaVuSerif-54" transform="translate(216.259766 0.015625)"/>
     <use xlink:href="#DejaVuSerif-20" transform="translate(282.958984 0.015625)"/>
     <use xlink:href="#DejaVuSerif-6f" transform="translate(314.746094 0.015625)"/>
     <use xlink:href="#DejaVuSerif-66" transform="translate(374.951172 0.015625)"/>
     <use xlink:href="#DejaVuSerif-20" transform="translate(411.962891 0.015625)"/>
     <use xlink:href="#DejaVuSerif-72" transform="translate(443.75 0.015625)"/>
     <use xlink:href="#DejaVuSerif-65" transform="translate(491.552734 0.015625)"/>
     <use xlink:href="#DejaVuSerif-63" transform="translate(550.732422 0.015625)"/>
     <use xlink:href="#DejaVuSerif-74" transform="translate(606.738281 0.015625)"/>
     <use xlink:href="#DejaVuSerif-61" transform="translate(646.923828 0.015625)"/>
     <use xlink:href="#DejaVuSerif-6e" transform="translate(706.542969 0.015625)"/>
     <use xlink:href="#DejaVuSerif-67" transform="translate(770.947266 0.015625)"/>
     <use xlink:href="#DejaVuSerif-75" transform="translate(834.960938 0.015625)"/>
     <use xlink:href="#DejaVuSerif-6c" transform="translate(899.365234 0.015625)"/>
     <use xlink:href="#DejaVuSerif-61" transform="translate(931.347656 0.015625)"/>
     <use xlink:href="#DejaVuSerif-72" transform="translate(990.966797 0.015625)"/>
     <use xlink:href="#DejaVuSerif-20" transform="translate(1038.769531 0.015625)"/>
     <use xlink:href="#DejaVuSerif-70" transform="translate(1070.556641 0.015625)"/>
     <use xlink:href="#DejaVuSerif-75" transform="translate(1134.570312 0.015625)"/>
     <use xlink:href="#DejaVuSerif-6c" transform="translate(1198.974609 0.015625)"/>
     <use xlink:href="#DejaVuSerif-73" transform="translate(1230.957031 0.015625)"/>
     <use xlink:href="#DejaVuSerif-65" transform="translate(1282.275391 0.015625)"/>
     <use xlink:href="#DejaVuSerif-20" transform="translate(1341.455078 0.015625)"/>
     <use xlink:href="#DejaVuSerif-28" transform="translate(1373.242188 0.015625)"/>
     <use xlink:href="#DejaVuSans-Oblique-4e" transform="translate(1412.255859 0.015625)"/>
     <use xlink:href="#DejaVuSans-31" transform="translate(1487.060547 -16.390625) scale(0.7)"/>
     <use xlink:href="#DejaVuSans-3d" transform="translate(1553.813477 0.015625)"/>
     <use xlink:href="#DejaVuSans-35" transform="translate(1657.084961 0.015625)"/>
     <use xlink:href="#DejaVuSerif-29" transform="translate(1720.708008 0.015625)"/>
    </g>
   </g>
   <g id="legend_1">
    <g id="patch_7">
     <path d="M 471.172617 58.17375 
L 546.652617 58.17375 
Q 549.052617 58.17375 549.052617 55.77375 
L 549.052617 39.36 
Q 549.052617 36.96 546.652617 36.96 
L 471.172617 36.96 
Q 468.772617 36.96 468.772617 39.36 
L 468.772617 55.77375 
Q 468.772617 58.17375 471.172617 58.17375 
z
" style="fill: #ffffff; opacity: 0.8; stroke: #cccccc; stroke-linejoin: miter"/>
    </g>
    <g id="line2d_27">
     <path d="M 473.572617 46.678125 
L 485.572617 46.678125 
L 497.572617 46.678125 
" style="fill: none; stroke: #d62728; stroke-width: 1.8; stroke-linecap: square"/>
    </g>
    <g id="text_17">
     <!-- $N_1 = 5$ -->
     <g transform="translate(507.172617 50.878125) scale(0.12 -0.12)">
      <use xlink:href="#DejaVuSans-Oblique-4e" transform="translate(0 0.09375)"/>
      <use xlink:href="#DejaVuSans-31" transform="translate(74.804688 -16.3125) scale(0.7)"/>
      <use xlink:href="#DejaVuSans-3d" transform="translate(141.557617 0.09375)"/>
      <use xlink:href="#DejaVuSans-35" transform="translate(244.829102 0.09375)"/>
     </g>
    </g>
   </g>
  </g>
 </g>
 <defs>
  <clipPath id="p1402bf1213">
   <rect x="56.78" y="30.96" width="498.272617" height="208.6"/>
  </clipPath>
 </defs>
</svg>
